<svg xmlns="http://www.w3.org/2000/svg" xmlns:xlink="http://www.w3.org/1999/xlink" width="349" zoomAndPan="magnify" viewBox="0 0 261.75 66.75" height="89" preserveAspectRatio="xMidYMid meet" version="1.0"><defs><g/><clipPath id="f1b538044e"><path d="M 11.226562 10 L 15 10 L 15 14 L 11.226562 14 Z M 11.226562 10 " clip-rule="nonzero"/></clipPath><clipPath id="deb0d9dc6b"><path d="M 45 17 L 47.839844 17 L 47.839844 21 L 45 21 Z M 45 17 " clip-rule="nonzero"/></clipPath><clipPath id="2ca9369a07"><path d="M 31.277344 36.90625 L 34.539062 36.90625 L 34.539062 39.898438 L 31.277344 39.898438 Z M 31.277344 36.90625 " clip-rule="nonzero"/></clipPath><clipPath id="40ff62d724"><path d="M 32 4.78125 L 36 4.78125 L 36 8 L 32 8 Z M 32 4.78125 " clip-rule="nonzero"/></clipPath><clipPath id="4a8d892a7f"><path d="M 11.226562 18 L 15 18 L 15 22 L 11.226562 22 Z M 11.226562 18 " clip-rule="nonzero"/></clipPath><clipPath id="a43837b680"><path d="M 19 4.78125 L 24 4.78125 L 24 9 L 19 9 Z M 19 4.78125 " clip-rule="nonzero"/></clipPath><clipPath id="e1175407f8"><path d="M 48.140625 2.816406 L 59.347656 2.816406 L 59.347656 42.417969 L 48.140625 42.417969 Z M 48.140625 2.816406 " clip-rule="nonzero"/></clipPath><clipPath id="e559fa0a8d"><path d="M 0.363281 2.523438 L 11.222656 2.523438 L 11.222656 42.125 L 0.363281 42.125 Z M 0.363281 2.523438 " clip-rule="nonzero"/></clipPath></defs><path stroke-linecap="butt" transform="matrix(0, -0.747201, 0.747201, 0, 70.38372, 44.950422)" fill="none" stroke-linejoin="miter" d="M 0.00161098 0.500658 L 60.158371 0.500658 " stroke="#ffffff" stroke-width="1" stroke-opacity="1" stroke-miterlimit="4"/><g fill="#ffffff" fill-opacity="1"><g transform="translate(85.195408, 29.595738)"><g><path d="M 14.84375 0 L 3.53125 0 C 3.007812 0 2.535156 -0.125 2.109375 -0.375 C 1.679688 -0.632812 1.335938 -0.976562 1.078125 -1.40625 C 0.828125 -1.832031 0.703125 -2.304688 0.703125 -2.828125 L 0.703125 -11.3125 C 0.703125 -11.832031 0.828125 -12.304688 1.078125 -12.734375 C 1.335938 -13.160156 1.679688 -13.5 2.109375 -13.75 C 2.535156 -14.007812 3.007812 -14.140625 3.53125 -14.140625 L 14.84375 -14.140625 L 14.84375 -11.3125 L 3.53125 -11.3125 L 3.53125 -2.828125 L 14.84375 -2.828125 Z M 14.84375 0 "/></g></g></g><g fill="#ffffff" fill-opacity="1"><g transform="translate(100.743168, 29.595738)"><g><path d="M 12.015625 0 L 3.53125 0 C 3.007812 0 2.535156 -0.125 2.109375 -0.375 C 1.679688 -0.632812 1.335938 -0.976562 1.078125 -1.40625 C 0.828125 -1.832031 0.703125 -2.304688 0.703125 -2.828125 L 0.703125 -11.3125 C 0.703125 -11.832031 0.828125 -12.304688 1.078125 -12.734375 C 1.335938 -13.160156 1.679688 -13.5 2.109375 -13.75 C 2.535156 -14.007812 3.007812 -14.140625 3.53125 -14.140625 L 12.015625 -14.140625 C 12.535156 -14.140625 13.007812 -14.007812 13.4375 -13.75 C 13.863281 -13.5 14.203125 -13.160156 14.453125 -12.734375 C 14.710938 -12.304688 14.84375 -11.832031 14.84375 -11.3125 L 14.84375 -2.828125 C 14.84375 -2.316406 14.710938 -1.847656 14.453125 -1.421875 C 14.203125 -0.992188 13.863281 -0.648438 13.4375 -0.390625 C 13.019531 -0.128906 12.546875 0 12.015625 0 Z M 3.53125 -11.3125 L 3.53125 -2.828125 L 12.015625 -2.828125 L 12.015625 -11.3125 Z M 3.53125 -11.3125 "/></g></g></g><g fill="#ffffff" fill-opacity="1"><g transform="translate(116.290929, 29.595738)"><g><path d="M 12.015625 0 L 0.703125 0 L 0.703125 -14.140625 L 12.015625 -14.140625 C 12.535156 -14.140625 13.007812 -14.007812 13.4375 -13.75 C 13.863281 -13.5 14.203125 -13.160156 14.453125 -12.734375 C 14.710938 -12.304688 14.84375 -11.832031 14.84375 -11.3125 L 14.84375 -2.828125 C 14.84375 -2.304688 14.710938 -1.832031 14.453125 -1.40625 C 14.203125 -0.976562 13.863281 -0.632812 13.4375 -0.375 C 13.007812 -0.125 12.535156 0 12.015625 0 Z M 3.53125 -11.3125 L 3.53125 -2.828125 L 12.015625 -2.828125 L 12.015625 -11.3125 Z M 3.53125 -11.3125 "/></g></g></g><g fill="#ffffff" fill-opacity="1"><g transform="translate(131.838689, 29.595738)"><g><path d="M 14.84375 -14.140625 L 14.84375 -11.3125 L 3.53125 -11.3125 L 3.53125 -8.484375 L 14.84375 -8.484375 L 14.84375 -5.65625 L 3.53125 -5.65625 L 3.53125 -2.828125 L 14.84375 -2.828125 L 14.84375 0 L 3.53125 0 C 3.007812 0 2.535156 -0.125 2.109375 -0.375 C 1.679688 -0.632812 1.335938 -0.976562 1.078125 -1.40625 C 0.828125 -1.832031 0.703125 -2.304688 0.703125 -2.828125 L 0.703125 -11.3125 C 0.703125 -11.832031 0.828125 -12.304688 1.078125 -12.734375 C 1.335938 -13.160156 1.679688 -13.5 2.109375 -13.75 C 2.535156 -14.007812 3.007812 -14.140625 3.53125 -14.140625 Z M 14.84375 -14.140625 "/></g></g></g><g fill="#ffffff" fill-opacity="1"><g transform="translate(147.386449, 29.595738)"><g><path d="M 14.84375 -11.3125 L 14.84375 -8.484375 C 14.84375 -7.960938 14.710938 -7.488281 14.453125 -7.0625 C 14.203125 -6.632812 13.863281 -6.289062 13.4375 -6.03125 C 13.007812 -5.78125 12.535156 -5.65625 12.015625 -5.65625 L 9.1875 -5.65625 L 12.015625 -2.828125 L 14.84375 -2.828125 L 14.84375 0 L 11.453125 0 C 11.046875 0 10.703125 -0.140625 10.421875 -0.421875 L 5.203125 -5.65625 L 3.53125 -5.65625 L 3.53125 0 L 0.703125 0 L 0.703125 -14.140625 L 12.015625 -14.140625 C 12.535156 -14.140625 13.007812 -14.007812 13.4375 -13.75 C 13.863281 -13.5 14.203125 -13.160156 14.453125 -12.734375 C 14.710938 -12.304688 14.84375 -11.832031 14.84375 -11.3125 Z M 12.015625 -11.3125 L 3.53125 -11.3125 L 3.53125 -8.484375 L 12.015625 -8.484375 Z M 12.015625 -11.3125 "/></g></g></g><g fill="#ffffff" fill-opacity="1"><g transform="translate(162.93421, 29.595738)"><g><path d="M 1.40625 -8.484375 L 0 -8.484375 L 0 -11.3125 L 1.40625 -11.3125 L 1.40625 -14.140625 L 4.234375 -14.140625 L 4.234375 -11.3125 C 4.234375 -10.789062 4.109375 -10.316406 3.859375 -9.890625 C 3.609375 -9.460938 3.265625 -9.117188 2.828125 -8.859375 C 2.398438 -8.609375 1.925781 -8.484375 1.40625 -8.484375 Z M 1.40625 -8.484375 "/></g></g></g><g fill="#ffffff" fill-opacity="1"><g transform="translate(167.174512, 29.595738)"><g><path d="M 14.84375 -14.140625 L 14.84375 -11.3125 L 3.53125 -11.3125 L 3.53125 -8.484375 L 12.015625 -8.484375 C 12.535156 -8.484375 13.007812 -8.351562 13.4375 -8.09375 C 13.863281 -7.84375 14.203125 -7.503906 14.453125 -7.078125 C 14.710938 -6.648438 14.84375 -6.175781 14.84375 -5.65625 L 14.84375 -2.828125 C 14.84375 -2.304688 14.710938 -1.832031 14.453125 -1.40625 C 14.203125 -0.976562 13.863281 -0.632812 13.4375 -0.375 C 13.007812 -0.125 12.535156 0 12.015625 0 L 0.703125 0 L 0.703125 -2.828125 L 12.015625 -2.828125 L 12.015625 -5.65625 L 3.53125 -5.65625 C 3.007812 -5.65625 2.535156 -5.78125 2.109375 -6.03125 C 1.679688 -6.289062 1.335938 -6.632812 1.078125 -7.0625 C 0.828125 -7.488281 0.703125 -7.960938 0.703125 -8.484375 L 0.703125 -11.3125 C 0.703125 -11.832031 0.828125 -12.304688 1.078125 -12.734375 C 1.335938 -13.160156 1.679688 -13.5 2.109375 -13.75 C 2.535156 -14.007812 3.007812 -14.140625 3.53125 -14.140625 Z M 14.84375 -14.140625 "/></g></g></g><g fill="#ffffff" fill-opacity="1"><g transform="translate(182.722272, 29.595738)"><g/></g></g><g fill="#ffffff" fill-opacity="1"><g transform="translate(190.496147, 29.595738)"><g><path d="M 14.84375 0 L 3.53125 0 C 3.007812 0 2.535156 -0.125 2.109375 -0.375 C 1.679688 -0.632812 1.335938 -0.976562 1.078125 -1.40625 C 0.828125 -1.832031 0.703125 -2.304688 0.703125 -2.828125 L 0.703125 -11.3125 C 0.703125 -11.832031 0.828125 -12.304688 1.078125 -12.734375 C 1.335938 -13.160156 1.679688 -13.5 2.109375 -13.75 C 2.535156 -14.007812 3.007812 -14.140625 3.53125 -14.140625 L 14.84375 -14.140625 L 14.84375 -11.3125 L 3.53125 -11.3125 L 3.53125 -2.828125 L 14.84375 -2.828125 Z M 14.84375 0 "/></g></g></g><g fill="#ffffff" fill-opacity="1"><g transform="translate(206.043907, 29.595738)"><g><path d="M 14.84375 0 L 3.53125 0 C 3.007812 0 2.535156 -0.125 2.109375 -0.375 C 1.679688 -0.632812 1.335938 -0.976562 1.078125 -1.40625 C 0.828125 -1.832031 0.703125 -2.304688 0.703125 -2.828125 L 0.703125 -14.140625 L 3.53125 -14.140625 L 3.53125 -2.828125 L 14.84375 -2.828125 Z M 14.84375 0 "/></g></g></g><g fill="#ffffff" fill-opacity="1"><g transform="translate(221.591668, 29.595738)"><g><path d="M 12.015625 0 L 3.53125 0 C 3.007812 0 2.535156 -0.125 2.109375 -0.375 C 1.679688 -0.632812 1.335938 -0.976562 1.078125 -1.40625 C 0.828125 -1.832031 0.703125 -2.304688 0.703125 -2.828125 L 0.703125 -14.140625 L 3.53125 -14.140625 L 3.53125 -2.828125 L 12.015625 -2.828125 L 12.015625 -14.140625 L 14.84375 -14.140625 L 14.84375 -2.828125 C 14.84375 -2.304688 14.710938 -1.832031 14.453125 -1.40625 C 14.203125 -0.976562 13.863281 -0.632812 13.4375 -0.375 C 13.007812 -0.125 12.535156 0 12.015625 0 Z M 12.015625 0 "/></g></g></g><g fill="#ffffff" fill-opacity="1"><g transform="translate(237.139428, 29.595738)"><g><path d="M 14.84375 -11.3125 L 14.84375 -8.484375 C 14.84375 -8.097656 14.703125 -7.765625 14.421875 -7.484375 C 14.148438 -7.203125 13.820312 -7.0625 13.4375 -7.0625 C 13.820312 -7.0625 14.148438 -6.921875 14.421875 -6.640625 C 14.703125 -6.367188 14.84375 -6.039062 14.84375 -5.65625 L 14.84375 -2.828125 C 14.84375 -2.316406 14.710938 -1.847656 14.453125 -1.421875 C 14.203125 -0.992188 13.863281 -0.648438 13.4375 -0.390625 C 13.019531 -0.128906 12.546875 0 12.015625 0 L 0.703125 0 L 0.703125 -14.140625 L 12.015625 -14.140625 C 12.546875 -14.140625 13.019531 -14.007812 13.4375 -13.75 C 13.863281 -13.488281 14.203125 -13.144531 14.453125 -12.71875 C 14.710938 -12.300781 14.84375 -11.832031 14.84375 -11.3125 Z M 12.015625 -11.3125 L 3.53125 -11.3125 L 3.53125 -8.484375 L 12.015625 -8.484375 Z M 3.53125 -2.828125 L 12.015625 -2.828125 L 12.015625 -5.65625 L 3.53125 -5.65625 Z M 3.53125 -2.828125 "/></g></g></g><g clip-path="url(#f1b538044e)"><path fill="#ffffff" d="M 13.234375 11.652344 C 12.878906 11.652344 12.585938 11.941406 12.585938 12.296875 C 12.585938 12.652344 12.878906 12.945312 13.234375 12.945312 C 13.589844 12.945312 13.878906 12.652344 13.878906 12.296875 C 13.878906 11.941406 13.589844 11.652344 13.234375 11.652344 Z M 13.234375 13.640625 C 12.492188 13.640625 11.890625 13.039062 11.890625 12.296875 C 11.890625 11.558594 12.492188 10.953125 13.234375 10.953125 C 13.976562 10.953125 14.578125 11.558594 14.578125 12.296875 C 14.578125 13.039062 13.976562 13.640625 13.234375 13.640625 " fill-opacity="1" fill-rule="nonzero"/></g><path fill="#ffffff" d="M 12.882812 19.457031 C 12.875 19.457031 12.871094 19.457031 12.863281 19.457031 C 12.671875 19.449219 12.523438 19.285156 12.535156 19.09375 L 12.832031 13.273438 C 12.84375 13.082031 13.007812 12.933594 13.199219 12.941406 C 13.390625 12.953125 13.539062 13.117188 13.527344 13.308594 L 13.230469 19.128906 C 13.21875 19.3125 13.066406 19.457031 12.882812 19.457031 " fill-opacity="1" fill-rule="nonzero"/><path fill="#ffffff" d="M 18.769531 22.949219 C 18.726562 22.949219 18.683594 22.941406 18.644531 22.925781 L 13.859375 21.117188 C 13.679688 21.050781 13.585938 20.847656 13.65625 20.667969 C 13.722656 20.488281 13.925781 20.398438 14.105469 20.464844 L 18.890625 22.277344 C 19.070312 22.34375 19.160156 22.546875 19.09375 22.726562 C 19.042969 22.863281 18.910156 22.949219 18.769531 22.949219 " fill-opacity="1" fill-rule="nonzero"/><path fill="#ffffff" d="M 21.109375 27.667969 C 20.964844 27.667969 20.828125 27.574219 20.78125 27.429688 L 19.671875 24.007812 C 19.613281 23.828125 19.714844 23.628906 19.898438 23.570312 C 20.082031 23.511719 20.277344 23.613281 20.335938 23.792969 L 21.441406 27.214844 C 21.5 27.398438 21.402344 27.59375 21.21875 27.652344 C 21.183594 27.664062 21.148438 27.667969 21.109375 27.667969 " fill-opacity="1" fill-rule="nonzero"/><path fill="#ffffff" d="M 26.351562 29.613281 C 26.339844 29.613281 26.324219 29.613281 26.3125 29.613281 L 23.015625 29.25 C 22.824219 29.230469 22.6875 29.058594 22.707031 28.867188 C 22.730469 28.675781 22.898438 28.539062 23.09375 28.558594 L 26.390625 28.921875 C 26.582031 28.941406 26.71875 29.113281 26.695312 29.304688 C 26.679688 29.484375 26.527344 29.613281 26.351562 29.613281 " fill-opacity="1" fill-rule="nonzero"/><path fill="#ffffff" d="M 33.980469 32.160156 C 33.941406 32.160156 33.902344 32.15625 33.859375 32.140625 L 28.628906 30.167969 C 28.449219 30.097656 28.355469 29.898438 28.425781 29.71875 C 28.492188 29.539062 28.691406 29.449219 28.875 29.515625 L 34.105469 31.488281 C 34.285156 31.554688 34.375 31.757812 34.308594 31.9375 C 34.253906 32.078125 34.125 32.160156 33.980469 32.160156 " fill-opacity="1" fill-rule="nonzero"/><path fill="#ffffff" d="M 35.839844 32.148438 C 35.699219 32.148438 35.570312 32.066406 35.515625 31.929688 C 35.445312 31.75 35.535156 31.546875 35.710938 31.476562 L 42.363281 28.871094 C 42.542969 28.800781 42.746094 28.890625 42.816406 29.066406 C 42.886719 29.246094 42.796875 29.449219 42.621094 29.519531 L 35.96875 32.125 C 35.925781 32.140625 35.882812 32.148438 35.839844 32.148438 " fill-opacity="1" fill-rule="nonzero"/><path fill="#ffffff" d="M 44.03125 27.90625 C 43.996094 27.90625 43.957031 27.898438 43.921875 27.890625 C 43.742188 27.828125 43.640625 27.632812 43.699219 27.449219 L 46.152344 19.800781 C 46.210938 19.617188 46.40625 19.515625 46.589844 19.574219 C 46.773438 19.632812 46.875 19.828125 46.816406 20.011719 L 44.363281 27.664062 C 44.3125 27.8125 44.175781 27.90625 44.03125 27.90625 " fill-opacity="1" fill-rule="nonzero"/><path fill="#ffffff" d="M 46.277344 18.453125 C 46.15625 18.453125 46.042969 18.394531 45.976562 18.285156 L 42.144531 11.910156 C 42.042969 11.746094 42.097656 11.53125 42.261719 11.433594 C 42.425781 11.332031 42.640625 11.386719 42.738281 11.550781 L 46.574219 17.925781 C 46.671875 18.089844 46.621094 18.304688 46.453125 18.40625 C 46.398438 18.4375 46.335938 18.453125 46.277344 18.453125 " fill-opacity="1" fill-rule="nonzero"/><path fill="#ffffff" d="M 40.71875 10.398438 C 40.660156 10.398438 40.601562 10.382812 40.546875 10.351562 L 34.554688 6.9375 C 34.390625 6.84375 34.332031 6.628906 34.425781 6.460938 C 34.519531 6.296875 34.734375 6.238281 34.902344 6.332031 L 40.890625 9.746094 C 41.058594 9.839844 41.117188 10.054688 41.023438 10.222656 C 40.957031 10.332031 40.839844 10.398438 40.71875 10.398438 " fill-opacity="1" fill-rule="nonzero"/><path fill="#ffffff" d="M 22.8125 6.777344 C 22.625 6.777344 22.472656 6.628906 22.464844 6.441406 C 22.460938 6.246094 22.613281 6.085938 22.804688 6.082031 L 32.859375 5.820312 C 32.863281 5.820312 32.867188 5.820312 32.871094 5.820312 C 33.058594 5.820312 33.214844 5.96875 33.21875 6.160156 C 33.222656 6.351562 33.070312 6.511719 32.878906 6.515625 L 22.824219 6.777344 C 22.820312 6.777344 22.816406 6.777344 22.8125 6.777344 " fill-opacity="1" fill-rule="nonzero"/><path fill="#ffffff" d="M 14.046875 12.074219 C 13.9375 12.074219 13.832031 12.023438 13.761719 11.925781 C 13.652344 11.765625 13.691406 11.550781 13.847656 11.441406 L 20.351562 6.890625 C 20.511719 6.78125 20.726562 6.820312 20.835938 6.976562 C 20.945312 7.132812 20.910156 7.351562 20.75 7.460938 L 14.25 12.011719 C 14.1875 12.054688 14.117188 12.074219 14.046875 12.074219 " fill-opacity="1" fill-rule="nonzero"/><path fill="#ffffff" d="M 21.195312 14.179688 C 21.175781 14.179688 21.152344 14.175781 21.128906 14.171875 L 14.144531 12.824219 C 13.957031 12.785156 13.832031 12.605469 13.871094 12.414062 C 13.90625 12.226562 14.089844 12.101562 14.277344 12.140625 L 21.261719 13.488281 C 21.449219 13.527344 21.574219 13.707031 21.539062 13.898438 C 21.503906 14.0625 21.359375 14.179688 21.195312 14.179688 " fill-opacity="1" fill-rule="nonzero"/><path fill="#ffffff" d="M 13.867188 20.035156 C 13.753906 20.035156 13.640625 19.976562 13.574219 19.875 C 13.472656 19.710938 13.519531 19.496094 13.683594 19.394531 L 21.214844 14.617188 C 21.378906 14.515625 21.59375 14.5625 21.695312 14.726562 C 21.796875 14.886719 21.75 15.105469 21.589844 15.207031 L 14.054688 19.980469 C 13.996094 20.019531 13.933594 20.035156 13.867188 20.035156 " fill-opacity="1" fill-rule="nonzero"/><path fill="#ffffff" d="M 22.449219 12.984375 C 22.28125 12.984375 22.132812 12.859375 22.105469 12.683594 L 21.402344 7.742188 C 21.375 7.554688 21.507812 7.378906 21.695312 7.351562 C 21.886719 7.324219 22.0625 7.457031 22.089844 7.644531 L 22.796875 12.585938 C 22.824219 12.777344 22.691406 12.953125 22.5 12.980469 C 22.484375 12.984375 22.46875 12.984375 22.449219 12.984375 " fill-opacity="1" fill-rule="nonzero"/><path fill="#ffffff" d="M 20.015625 22.359375 C 19.980469 22.359375 19.941406 22.355469 19.90625 22.34375 C 19.722656 22.28125 19.625 22.082031 19.683594 21.902344 L 21.855469 15.417969 C 21.917969 15.234375 22.117188 15.136719 22.296875 15.199219 C 22.480469 15.261719 22.578125 15.457031 22.519531 15.640625 L 20.34375 22.121094 C 20.296875 22.269531 20.160156 22.359375 20.015625 22.359375 " fill-opacity="1" fill-rule="nonzero"/><path fill="#ffffff" d="M 31.75 12.523438 C 31.710938 12.523438 31.671875 12.515625 31.632812 12.503906 C 31.449219 12.4375 31.355469 12.238281 31.417969 12.058594 L 33.207031 6.964844 C 33.269531 6.785156 33.46875 6.6875 33.648438 6.753906 C 33.832031 6.816406 33.925781 7.015625 33.863281 7.195312 L 32.078125 12.289062 C 32.027344 12.433594 31.890625 12.523438 31.75 12.523438 " fill-opacity="1" fill-rule="nonzero"/><path fill="#ffffff" d="M 24.148438 14.332031 C 23.96875 14.332031 23.816406 14.195312 23.800781 14.011719 C 23.785156 13.820312 23.925781 13.652344 24.117188 13.636719 L 30.066406 13.109375 C 30.261719 13.09375 30.425781 13.234375 30.445312 13.425781 C 30.460938 13.617188 30.320312 13.785156 30.128906 13.804688 L 24.179688 14.328125 C 24.167969 14.328125 24.160156 14.332031 24.148438 14.332031 " fill-opacity="1" fill-rule="nonzero"/><path fill="#ffffff" d="M 28.558594 20.261719 C 28.515625 20.261719 28.46875 20.25 28.425781 20.234375 C 28.25 20.15625 28.164062 19.953125 28.238281 19.777344 L 30.53125 14.355469 C 30.605469 14.179688 30.808594 14.097656 30.988281 14.171875 C 31.164062 14.246094 31.246094 14.449219 31.171875 14.628906 L 28.882812 20.046875 C 28.824219 20.179688 28.695312 20.261719 28.558594 20.261719 " fill-opacity="1" fill-rule="nonzero"/><path fill="#ffffff" d="M 38.101562 17.226562 C 38.046875 17.226562 37.992188 17.214844 37.941406 17.1875 L 32.277344 14.230469 C 32.109375 14.140625 32.042969 13.933594 32.128906 13.761719 C 32.21875 13.589844 32.429688 13.523438 32.601562 13.613281 L 38.265625 16.570312 C 38.433594 16.660156 38.5 16.871094 38.410156 17.039062 C 38.347656 17.160156 38.226562 17.226562 38.101562 17.226562 " fill-opacity="1" fill-rule="nonzero"/><path fill="#ffffff" d="M 37.410156 23.378906 C 37.378906 23.378906 37.347656 23.375 37.316406 23.367188 C 37.132812 23.316406 37.023438 23.125 37.074219 22.9375 L 38.382812 18.203125 C 38.433594 18.019531 38.628906 17.910156 38.8125 17.960938 C 38.996094 18.011719 39.105469 18.207031 39.054688 18.390625 L 37.746094 23.125 C 37.703125 23.277344 37.5625 23.378906 37.410156 23.378906 " fill-opacity="1" fill-rule="nonzero"/><path fill="#ffffff" d="M 35.617188 24.285156 C 35.578125 24.285156 35.535156 24.277344 35.496094 24.261719 L 29.113281 21.828125 C 28.933594 21.757812 28.84375 21.558594 28.914062 21.378906 C 28.980469 21.199219 29.183594 21.109375 29.363281 21.175781 L 35.742188 23.613281 C 35.921875 23.679688 36.011719 23.882812 35.945312 24.0625 C 35.890625 24.199219 35.757812 24.285156 35.617188 24.285156 " fill-opacity="1" fill-rule="nonzero"/><path fill="#ffffff" d="M 45.8125 19.105469 C 45.789062 19.105469 45.765625 19.101562 45.742188 19.097656 L 39.890625 17.882812 C 39.699219 17.84375 39.578125 17.660156 39.617188 17.46875 C 39.65625 17.28125 39.84375 17.160156 40.03125 17.199219 L 45.882812 18.414062 C 46.070312 18.453125 46.195312 18.640625 46.152344 18.828125 C 46.121094 18.992188 45.976562 19.105469 45.8125 19.105469 " fill-opacity="1" fill-rule="nonzero"/><path fill="#ffffff" d="M 39.371094 16.769531 C 39.328125 16.769531 39.28125 16.761719 39.238281 16.742188 C 39.058594 16.667969 38.976562 16.464844 39.050781 16.285156 L 40.996094 11.675781 C 41.070312 11.5 41.273438 11.414062 41.453125 11.488281 C 41.628906 11.566406 41.710938 11.769531 41.636719 11.945312 L 39.691406 16.558594 C 39.636719 16.691406 39.507812 16.769531 39.371094 16.769531 " fill-opacity="1" fill-rule="nonzero"/><path fill="#ffffff" d="M 20.667969 23.082031 C 20.507812 23.082031 20.367188 22.972656 20.328125 22.8125 C 20.285156 22.625 20.40625 22.4375 20.59375 22.394531 L 26.785156 20.992188 C 26.976562 20.949219 27.160156 21.066406 27.203125 21.253906 C 27.246094 21.441406 27.128906 21.628906 26.941406 21.671875 L 20.746094 23.074219 C 20.71875 23.082031 20.695312 23.082031 20.667969 23.082031 " fill-opacity="1" fill-rule="nonzero"/><path fill="#ffffff" d="M 27.660156 28.507812 C 27.652344 28.507812 27.648438 28.507812 27.640625 28.507812 C 27.449219 28.496094 27.300781 28.332031 27.3125 28.140625 L 27.65625 22.277344 C 27.667969 22.085938 27.832031 21.941406 28.023438 21.953125 C 28.214844 21.960938 28.363281 22.128906 28.351562 22.320312 L 28.007812 28.179688 C 27.996094 28.367188 27.84375 28.507812 27.660156 28.507812 " fill-opacity="1" fill-rule="nonzero"/><path fill="#ffffff" d="M 32.304688 37.832031 C 32.183594 37.832031 32.066406 37.769531 32.003906 37.660156 L 27.914062 30.652344 C 27.816406 30.488281 27.871094 30.273438 28.039062 30.175781 C 28.207031 30.078125 28.417969 30.136719 28.515625 30.300781 L 32.605469 37.308594 C 32.699219 37.476562 32.644531 37.6875 32.476562 37.785156 C 32.421875 37.816406 32.363281 37.832031 32.304688 37.832031 " fill-opacity="1" fill-rule="nonzero"/><path fill="#ffffff" d="M 33.296875 37.71875 C 33.265625 37.71875 33.230469 37.714844 33.195312 37.703125 C 33.011719 37.644531 32.910156 37.449219 32.964844 37.265625 L 34.285156 33.011719 C 34.34375 32.828125 34.539062 32.726562 34.722656 32.78125 C 34.90625 32.839844 35.007812 33.035156 34.953125 33.21875 L 33.632812 37.472656 C 33.582031 37.621094 33.445312 37.71875 33.296875 37.71875 " fill-opacity="1" fill-rule="nonzero"/><path fill="#ffffff" d="M 35.175781 31.554688 C 35.144531 31.554688 35.113281 31.550781 35.082031 31.539062 C 34.898438 31.492188 34.789062 31.296875 34.839844 31.113281 L 36.285156 25.820312 C 36.335938 25.632812 36.527344 25.523438 36.710938 25.574219 C 36.898438 25.625 37.007812 25.816406 36.957031 26 L 35.511719 31.296875 C 35.46875 31.453125 35.328125 31.554688 35.175781 31.554688 " fill-opacity="1" fill-rule="nonzero"/><path fill="#ffffff" d="M 42.605469 28.417969 C 42.539062 28.417969 42.476562 28.398438 42.417969 28.363281 L 38.078125 25.570312 C 37.917969 25.46875 37.871094 25.25 37.976562 25.089844 C 38.078125 24.925781 38.292969 24.882812 38.457031 24.984375 L 42.792969 27.777344 C 42.953125 27.878906 43 28.09375 42.898438 28.257812 C 42.832031 28.359375 42.71875 28.417969 42.605469 28.417969 " fill-opacity="1" fill-rule="nonzero"/><path fill="#ffffff" d="M 22.519531 27.9375 C 22.441406 27.9375 22.363281 27.910156 22.296875 27.859375 C 22.148438 27.734375 22.128906 27.515625 22.25 27.367188 L 26.917969 21.707031 C 27.039062 21.558594 27.261719 21.535156 27.410156 21.65625 C 27.554688 21.78125 27.578125 22 27.457031 22.148438 L 22.789062 27.8125 C 22.71875 27.894531 22.621094 27.9375 22.519531 27.9375 " fill-opacity="1" fill-rule="nonzero"/><g clip-path="url(#deb0d9dc6b)"><path fill="#ffffff" d="M 46.789062 18.3125 C 46.429688 18.3125 46.140625 18.601562 46.140625 18.957031 C 46.140625 19.316406 46.429688 19.605469 46.789062 19.605469 C 47.144531 19.605469 47.433594 19.316406 47.433594 18.957031 C 47.433594 18.601562 47.144531 18.3125 46.789062 18.3125 Z M 46.789062 20.300781 C 46.046875 20.300781 45.445312 19.699219 45.445312 18.957031 C 45.445312 18.21875 46.046875 17.617188 46.789062 17.617188 C 47.527344 17.617188 48.132812 18.21875 48.132812 18.957031 C 48.132812 19.699219 47.527344 20.300781 46.789062 20.300781 " fill-opacity="1" fill-rule="nonzero"/></g><g clip-path="url(#2ca9369a07)"><path fill="#ffffff" d="M 32.929688 37.664062 C 32.433594 37.664062 32.035156 38.066406 32.035156 38.558594 C 32.035156 39.050781 32.433594 39.453125 32.929688 39.453125 C 33.421875 39.453125 33.824219 39.050781 33.824219 38.558594 C 33.824219 38.066406 33.421875 37.664062 32.929688 37.664062 Z M 32.929688 40.148438 C 32.050781 40.148438 31.335938 39.4375 31.335938 38.558594 C 31.335938 37.679688 32.050781 36.964844 32.929688 36.964844 C 33.808594 36.964844 34.519531 37.679688 34.519531 38.558594 C 34.519531 39.4375 33.808594 40.148438 32.929688 40.148438 " fill-opacity="1" fill-rule="nonzero"/></g><path fill="#ffffff" d="M 27.585938 28.507812 C 27.09375 28.507812 26.691406 28.910156 26.691406 29.402344 C 26.691406 29.894531 27.09375 30.296875 27.585938 30.296875 C 28.082031 30.296875 28.484375 29.894531 28.484375 29.402344 C 28.484375 28.910156 28.082031 28.507812 27.585938 28.507812 Z M 27.585938 30.996094 C 26.710938 30.996094 25.996094 30.28125 25.996094 29.402344 C 25.996094 28.523438 26.710938 27.8125 27.585938 27.8125 C 28.464844 27.8125 29.179688 28.523438 29.179688 29.402344 C 29.179688 30.28125 28.464844 30.996094 27.585938 30.996094 " fill-opacity="1" fill-rule="nonzero"/><path fill="#ffffff" d="M 19.699219 22.308594 C 19.34375 22.308594 19.050781 22.597656 19.050781 22.953125 C 19.050781 23.3125 19.34375 23.601562 19.699219 23.601562 C 20.054688 23.601562 20.34375 23.3125 20.34375 22.953125 C 20.34375 22.597656 20.054688 22.308594 19.699219 22.308594 Z M 19.699219 24.296875 C 18.957031 24.296875 18.355469 23.695312 18.355469 22.953125 C 18.355469 22.214844 18.957031 21.613281 19.699219 21.613281 C 20.4375 21.613281 21.042969 22.214844 21.042969 22.953125 C 21.042969 23.695312 20.4375 24.296875 19.699219 24.296875 " fill-opacity="1" fill-rule="nonzero"/><path fill="#ffffff" d="M 37.011719 23.328125 C 36.382812 23.328125 35.867188 23.839844 35.867188 24.46875 C 35.867188 25.101562 36.382812 25.613281 37.011719 25.613281 C 37.644531 25.613281 38.15625 25.101562 38.15625 24.46875 C 38.15625 23.839844 37.644531 23.328125 37.011719 23.328125 Z M 37.011719 26.3125 C 36 26.3125 35.171875 25.484375 35.171875 24.46875 C 35.171875 23.457031 36 22.628906 37.011719 22.628906 C 38.027344 22.628906 38.851562 23.457031 38.851562 24.46875 C 38.851562 25.484375 38.027344 26.3125 37.011719 26.3125 " fill-opacity="1" fill-rule="nonzero"/><path fill="#ffffff" d="M 21.570312 27.597656 C 20.941406 27.597656 20.425781 28.109375 20.425781 28.742188 C 20.425781 29.371094 20.941406 29.886719 21.570312 29.886719 C 22.203125 29.886719 22.714844 29.371094 22.714844 28.742188 C 22.714844 28.109375 22.203125 27.597656 21.570312 27.597656 Z M 21.570312 30.582031 C 20.554688 30.582031 19.730469 29.757812 19.730469 28.742188 C 19.730469 27.726562 20.554688 26.902344 21.570312 26.902344 C 22.585938 26.902344 23.410156 27.726562 23.410156 28.742188 C 23.410156 29.757812 22.585938 30.582031 21.570312 30.582031 " fill-opacity="1" fill-rule="nonzero"/><path fill="#ffffff" d="M 32.539062 13.386719 C 32.386719 13.386719 32.242188 13.28125 32.203125 13.125 C 32.15625 12.9375 32.269531 12.75 32.453125 12.699219 L 40.507812 10.636719 C 40.695312 10.589844 40.886719 10.699219 40.933594 10.886719 C 40.980469 11.074219 40.867188 11.261719 40.683594 11.3125 L 32.628906 13.375 C 32.597656 13.382812 32.570312 13.386719 32.539062 13.386719 " fill-opacity="1" fill-rule="nonzero"/><path fill="#ffffff" d="M 43.179688 27.9375 C 43.042969 27.9375 42.910156 27.855469 42.855469 27.722656 L 39.039062 18.390625 C 38.964844 18.214844 39.050781 18.011719 39.230469 17.9375 C 39.40625 17.863281 39.609375 17.949219 39.683594 18.128906 L 43.5 27.457031 C 43.574219 27.636719 43.488281 27.839844 43.3125 27.914062 C 43.269531 27.929688 43.222656 27.9375 43.179688 27.9375 " fill-opacity="1" fill-rule="nonzero"/><path fill="#ffffff" d="M 29.253906 21.003906 C 29.109375 21.003906 28.972656 20.914062 28.921875 20.769531 C 28.863281 20.585938 28.957031 20.390625 29.140625 20.328125 L 37.929688 17.332031 C 38.113281 17.269531 38.308594 17.367188 38.371094 17.546875 C 38.433594 17.730469 38.335938 17.925781 38.15625 17.988281 L 29.367188 20.984375 C 29.328125 21 29.289062 21.003906 29.253906 21.003906 " fill-opacity="1" fill-rule="nonzero"/><path fill="#ffffff" d="M 27.3125 20.425781 C 27.207031 20.425781 27.105469 20.378906 27.039062 20.292969 L 23.304688 15.503906 C 23.1875 15.351562 23.214844 15.132812 23.367188 15.015625 C 23.515625 14.898438 23.734375 14.925781 23.855469 15.078125 L 27.585938 19.863281 C 27.703125 20.015625 27.679688 20.234375 27.527344 20.351562 C 27.460938 20.402344 27.386719 20.425781 27.3125 20.425781 " fill-opacity="1" fill-rule="nonzero"/><path fill="#ffffff" d="M 23.878906 13.597656 C 23.769531 13.597656 23.664062 13.546875 23.59375 13.449219 C 23.484375 13.292969 23.519531 13.078125 23.675781 12.964844 L 32.851562 6.433594 C 33.007812 6.324219 33.226562 6.359375 33.335938 6.515625 C 33.449219 6.675781 33.410156 6.890625 33.253906 7.003906 L 24.078125 13.53125 C 24.019531 13.574219 23.949219 13.597656 23.878906 13.597656 " fill-opacity="1" fill-rule="nonzero"/><path fill="#ffffff" d="M 34.390625 31.664062 C 34.277344 31.664062 34.160156 31.605469 34.097656 31.5 L 28.433594 22.300781 C 28.332031 22.136719 28.382812 21.921875 28.546875 21.820312 C 28.710938 21.71875 28.921875 21.769531 29.023438 21.933594 L 34.6875 31.136719 C 34.789062 31.296875 34.738281 31.511719 34.574219 31.613281 C 34.519531 31.648438 34.453125 31.664062 34.390625 31.664062 " fill-opacity="1" fill-rule="nonzero"/><path fill="#ffffff" d="M 22.660156 12.96875 C 22.03125 12.96875 21.519531 13.484375 21.519531 14.113281 C 21.519531 14.746094 22.03125 15.257812 22.660156 15.257812 C 23.292969 15.257812 23.804688 14.746094 23.804688 14.113281 C 23.804688 13.484375 23.292969 12.96875 22.660156 12.96875 Z M 22.660156 15.953125 C 21.648438 15.953125 20.820312 15.128906 20.820312 14.113281 C 20.820312 13.097656 21.648438 12.273438 22.660156 12.273438 C 23.675781 12.273438 24.503906 13.097656 24.503906 14.113281 C 24.503906 15.128906 23.675781 15.953125 22.660156 15.953125 " fill-opacity="1" fill-rule="nonzero"/><g clip-path="url(#40ff62d724)"><path fill="#ffffff" d="M 33.863281 5.496094 C 33.507812 5.496094 33.21875 5.785156 33.21875 6.140625 C 33.21875 6.5 33.507812 6.789062 33.863281 6.789062 C 34.222656 6.789062 34.511719 6.5 34.511719 6.140625 C 34.511719 5.785156 34.222656 5.496094 33.863281 5.496094 Z M 33.863281 7.484375 C 33.125 7.484375 32.519531 6.882812 32.519531 6.140625 C 32.519531 5.402344 33.125 4.800781 33.863281 4.800781 C 34.605469 4.800781 35.207031 5.402344 35.207031 6.140625 C 35.207031 6.882812 34.605469 7.484375 33.863281 7.484375 " fill-opacity="1" fill-rule="nonzero"/></g><path fill="#ffffff" d="M 41.800781 9.769531 C 41.308594 9.769531 40.90625 10.171875 40.90625 10.664062 C 40.90625 11.160156 41.308594 11.558594 41.800781 11.558594 C 42.292969 11.558594 42.695312 11.160156 42.695312 10.664062 C 42.695312 10.171875 42.292969 9.769531 41.800781 9.769531 Z M 41.800781 12.257812 C 40.921875 12.257812 40.207031 11.542969 40.207031 10.664062 C 40.207031 9.785156 40.921875 9.074219 41.800781 9.074219 C 42.679688 9.074219 43.394531 9.785156 43.394531 10.664062 C 43.394531 11.542969 42.679688 12.257812 41.800781 12.257812 " fill-opacity="1" fill-rule="nonzero"/><path fill="#ffffff" d="M 43.648438 27.847656 C 43.15625 27.847656 42.753906 28.246094 42.753906 28.742188 C 42.753906 29.234375 43.15625 29.636719 43.648438 29.636719 C 44.144531 29.636719 44.546875 29.234375 44.546875 28.742188 C 44.546875 28.246094 44.144531 27.847656 43.648438 27.847656 Z M 43.648438 30.332031 C 42.773438 30.332031 42.058594 29.617188 42.058594 28.742188 C 42.058594 27.863281 42.773438 27.148438 43.648438 27.148438 C 44.527344 27.148438 45.242188 27.863281 45.242188 28.742188 C 45.242188 29.617188 44.527344 30.332031 43.648438 30.332031 " fill-opacity="1" fill-rule="nonzero"/><path fill="#ffffff" d="M 34.914062 31.519531 C 34.558594 31.519531 34.265625 31.808594 34.265625 32.164062 C 34.265625 32.519531 34.558594 32.8125 34.914062 32.8125 C 35.269531 32.8125 35.558594 32.519531 35.558594 32.164062 C 35.558594 31.808594 35.269531 31.519531 34.914062 31.519531 Z M 34.914062 33.507812 C 34.171875 33.507812 33.570312 32.90625 33.570312 32.164062 C 33.570312 31.425781 34.171875 30.820312 34.914062 30.820312 C 35.652344 30.820312 36.257812 31.425781 36.257812 32.164062 C 36.257812 32.90625 35.652344 33.507812 34.914062 33.507812 " fill-opacity="1" fill-rule="nonzero"/><path fill="#ffffff" d="M 31.335938 12.453125 C 30.84375 12.453125 30.441406 12.851562 30.441406 13.347656 C 30.441406 13.839844 30.84375 14.242188 31.335938 14.242188 C 31.828125 14.242188 32.230469 13.839844 32.230469 13.347656 C 32.230469 12.851562 31.828125 12.453125 31.335938 12.453125 Z M 31.335938 14.9375 C 30.457031 14.9375 29.742188 14.222656 29.742188 13.347656 C 29.742188 12.46875 30.457031 11.753906 31.335938 11.753906 C 32.214844 11.753906 32.929688 12.46875 32.929688 13.347656 C 32.929688 14.222656 32.214844 14.9375 31.335938 14.9375 " fill-opacity="1" fill-rule="nonzero"/><path fill="#ffffff" d="M 38.984375 16.691406 C 38.628906 16.691406 38.339844 16.980469 38.339844 17.339844 C 38.339844 17.695312 38.628906 17.984375 38.984375 17.984375 C 39.339844 17.984375 39.632812 17.695312 39.632812 17.339844 C 39.632812 16.980469 39.339844 16.691406 38.984375 16.691406 Z M 38.984375 18.683594 C 38.246094 18.683594 37.640625 18.078125 37.640625 17.339844 C 37.640625 16.597656 38.246094 15.996094 38.984375 15.996094 C 39.726562 15.996094 40.328125 16.597656 40.328125 17.339844 C 40.328125 18.078125 39.726562 18.683594 38.984375 18.683594 " fill-opacity="1" fill-rule="nonzero"/><path fill="#ffffff" d="M 28.078125 20.164062 C 27.582031 20.164062 27.179688 20.5625 27.179688 21.058594 C 27.179688 21.550781 27.582031 21.953125 28.078125 21.953125 C 28.570312 21.953125 28.972656 21.550781 28.972656 21.058594 C 28.972656 20.5625 28.570312 20.164062 28.078125 20.164062 Z M 28.078125 22.648438 C 27.199219 22.648438 26.484375 21.933594 26.484375 21.058594 C 26.484375 20.179688 27.199219 19.464844 28.078125 19.464844 C 28.953125 19.464844 29.667969 20.179688 29.667969 21.058594 C 29.667969 21.933594 28.953125 22.648438 28.078125 22.648438 " fill-opacity="1" fill-rule="nonzero"/><g clip-path="url(#4a8d892a7f)"><path fill="#ffffff" d="M 12.816406 19.457031 C 12.324219 19.457031 11.921875 19.859375 11.921875 20.351562 C 11.921875 20.847656 12.324219 21.246094 12.816406 21.246094 C 13.3125 21.246094 13.714844 20.847656 13.714844 20.351562 C 13.714844 19.859375 13.3125 19.457031 12.816406 19.457031 Z M 12.816406 21.945312 C 11.941406 21.945312 11.226562 21.230469 11.226562 20.351562 C 11.226562 19.472656 11.941406 18.761719 12.816406 18.761719 C 13.695312 18.761719 14.410156 19.472656 14.410156 20.351562 C 14.410156 21.230469 13.695312 21.945312 12.816406 21.945312 " fill-opacity="1" fill-rule="nonzero"/></g><g clip-path="url(#a43837b680)"><path fill="#ffffff" d="M 21.570312 5.566406 C 21.078125 5.566406 20.675781 5.96875 20.675781 6.464844 C 20.675781 6.957031 21.078125 7.359375 21.570312 7.359375 C 22.0625 7.359375 22.464844 6.957031 22.464844 6.464844 C 22.464844 5.96875 22.0625 5.566406 21.570312 5.566406 Z M 21.570312 8.054688 C 20.691406 8.054688 19.980469 7.339844 19.980469 6.464844 C 19.980469 5.585938 20.691406 4.871094 21.570312 4.871094 C 22.449219 4.871094 23.164062 5.585938 23.164062 6.464844 C 23.164062 7.339844 22.449219 8.054688 21.570312 8.054688 " fill-opacity="1" fill-rule="nonzero"/></g><g clip-path="url(#e1175407f8)"><path fill="#ffffff" d="M 50.261719 42.375 L 48.167969 42.375 L 48.167969 40.25 L 49.578125 40.25 C 52.140625 40.25 52.78125 39 52.78125 36.039062 C 52.78125 33.25 52.523438 30.789062 52.523438 27.707031 C 52.523438 24.707031 53.292969 23.207031 55.34375 22.664062 L 55.34375 22.5 C 53.292969 21.957031 52.523438 20.457031 52.523438 17.496094 C 52.523438 14.371094 52.78125 11.957031 52.78125 9.164062 C 52.78125 6.164062 52.140625 4.953125 49.578125 4.953125 L 48.167969 4.953125 L 48.167969 2.789062 L 50.261719 2.789062 C 53.976562 2.789062 55.769531 4.203125 55.769531 8.957031 C 55.769531 12.289062 55.34375 14.707031 55.34375 17.871094 C 55.34375 19.621094 56.195312 21.414062 59.355469 21.414062 L 59.355469 23.75 C 56.195312 23.789062 55.34375 25.582031 55.34375 27.332031 C 55.34375 30.414062 55.769531 32.875 55.769531 36.25 C 55.769531 41 53.976562 42.375 50.261719 42.375 Z M 50.261719 42.375 " fill-opacity="1" fill-rule="nonzero"/></g><g clip-path="url(#e559fa0a8d)"><path fill="#ffffff" d="M 9.101562 2.566406 L 11.191406 2.566406 L 11.191406 4.691406 L 9.785156 4.691406 C 7.222656 4.691406 6.582031 5.941406 6.582031 8.898438 C 6.582031 11.691406 6.839844 14.148438 6.839844 17.234375 C 6.839844 20.234375 6.070312 21.734375 4.019531 22.277344 L 4.019531 22.441406 C 6.070312 22.984375 6.839844 24.484375 6.839844 27.441406 C 6.839844 30.566406 6.582031 32.984375 6.582031 35.777344 C 6.582031 38.777344 7.222656 39.984375 9.785156 39.984375 L 11.191406 39.984375 L 11.191406 42.152344 L 9.101562 42.152344 C 5.386719 42.152344 3.59375 40.734375 3.59375 35.984375 C 3.59375 32.652344 4.019531 30.234375 4.019531 27.066406 C 4.019531 25.316406 3.167969 23.527344 0.0078125 23.527344 L 0.0078125 21.191406 C 3.167969 21.152344 4.019531 19.359375 4.019531 17.609375 C 4.019531 14.523438 3.59375 12.066406 3.59375 8.691406 C 3.59375 3.941406 5.386719 2.566406 9.101562 2.566406 Z M 9.101562 2.566406 " fill-opacity="1" fill-rule="nonzero"/></g><g fill="#ffffff" fill-opacity="1"><g transform="translate(42.959943, 58.415678)"><g><path d="M 2.609375 -6.203125 C 3.285156 -6.203125 3.867188 -6.070312 4.359375 -5.8125 C 4.859375 -5.5625 5.238281 -5.203125 5.5 -4.734375 C 5.769531 -4.265625 5.90625 -3.710938 5.90625 -3.078125 C 5.90625 -2.453125 5.769531 -1.90625 5.5 -1.4375 C 5.238281 -0.96875 4.859375 -0.609375 4.359375 -0.359375 C 3.867188 -0.117188 3.285156 0 2.609375 0 L 0.6875 0 L 0.6875 -6.203125 Z M 2.609375 -0.671875 C 3.410156 -0.671875 4.019531 -0.878906 4.4375 -1.296875 C 4.863281 -1.722656 5.078125 -2.316406 5.078125 -3.078125 C 5.078125 -3.847656 4.863281 -4.445312 4.4375 -4.875 C 4.019531 -5.3125 3.410156 -5.53125 2.609375 -5.53125 L 1.5 -5.53125 L 1.5 -0.671875 Z M 2.609375 -0.671875 "/></g></g></g><g fill="#ffffff" fill-opacity="1"><g transform="translate(49.24139, 58.415678)"><g><path d="M 5.125 -2.625 C 5.125 -2.46875 5.117188 -2.304688 5.109375 -2.140625 L 1.203125 -2.140625 C 1.234375 -1.648438 1.398438 -1.269531 1.703125 -1 C 2.003906 -0.738281 2.367188 -0.609375 2.796875 -0.609375 C 3.140625 -0.609375 3.425781 -0.6875 3.65625 -0.84375 C 3.894531 -1.007812 4.0625 -1.226562 4.15625 -1.5 L 5.03125 -1.5 C 4.90625 -1.03125 4.644531 -0.648438 4.25 -0.359375 C 3.851562 -0.0664062 3.367188 0.078125 2.796875 0.078125 C 2.328125 0.078125 1.910156 -0.0234375 1.546875 -0.234375 C 1.179688 -0.441406 0.894531 -0.734375 0.6875 -1.109375 C 0.476562 -1.492188 0.375 -1.9375 0.375 -2.4375 C 0.375 -2.945312 0.472656 -3.390625 0.671875 -3.765625 C 0.878906 -4.148438 1.164062 -4.441406 1.53125 -4.640625 C 1.894531 -4.847656 2.316406 -4.953125 2.796875 -4.953125 C 3.253906 -4.953125 3.660156 -4.847656 4.015625 -4.640625 C 4.367188 -4.441406 4.640625 -4.164062 4.828125 -3.8125 C 5.023438 -3.46875 5.125 -3.070312 5.125 -2.625 Z M 4.296875 -2.796875 C 4.296875 -3.097656 4.226562 -3.359375 4.09375 -3.578125 C 3.957031 -3.804688 3.769531 -3.976562 3.53125 -4.09375 C 3.300781 -4.207031 3.039062 -4.265625 2.75 -4.265625 C 2.34375 -4.265625 1.992188 -4.132812 1.703125 -3.875 C 1.421875 -3.613281 1.257812 -3.253906 1.21875 -2.796875 Z M 4.296875 -2.796875 "/></g></g></g><g fill="#ffffff" fill-opacity="1"><g transform="translate(54.749872, 58.415678)"><g><path d="M 1.5 -3.96875 C 1.65625 -4.25 1.890625 -4.484375 2.203125 -4.671875 C 2.523438 -4.859375 2.894531 -4.953125 3.3125 -4.953125 C 3.75 -4.953125 4.140625 -4.847656 4.484375 -4.640625 C 4.835938 -4.429688 5.113281 -4.140625 5.3125 -3.765625 C 5.519531 -3.390625 5.625 -2.953125 5.625 -2.453125 C 5.625 -1.960938 5.519531 -1.523438 5.3125 -1.140625 C 5.113281 -0.753906 4.835938 -0.453125 4.484375 -0.234375 C 4.140625 -0.0234375 3.75 0.078125 3.3125 0.078125 C 2.894531 0.078125 2.53125 -0.015625 2.21875 -0.203125 C 1.90625 -0.390625 1.664062 -0.617188 1.5 -0.890625 L 1.5 2.3125 L 0.6875 2.3125 L 0.6875 -4.875 L 1.5 -4.875 Z M 4.796875 -2.453125 C 4.796875 -2.816406 4.722656 -3.132812 4.578125 -3.40625 C 4.429688 -3.6875 4.226562 -3.894531 3.96875 -4.03125 C 3.71875 -4.175781 3.441406 -4.25 3.140625 -4.25 C 2.847656 -4.25 2.578125 -4.175781 2.328125 -4.03125 C 2.078125 -3.882812 1.875 -3.671875 1.71875 -3.390625 C 1.570312 -3.117188 1.5 -2.800781 1.5 -2.4375 C 1.5 -2.070312 1.570312 -1.75 1.71875 -1.46875 C 1.875 -1.195312 2.078125 -0.988281 2.328125 -0.84375 C 2.578125 -0.695312 2.847656 -0.625 3.140625 -0.625 C 3.441406 -0.625 3.71875 -0.695312 3.96875 -0.84375 C 4.226562 -0.988281 4.429688 -1.195312 4.578125 -1.46875 C 4.722656 -1.75 4.796875 -2.078125 4.796875 -2.453125 Z M 4.796875 -2.453125 "/></g></g></g><g fill="#ffffff" fill-opacity="1"><g transform="translate(60.755895, 58.415678)"><g><path d="M 0.375 -2.453125 C 0.375 -2.953125 0.472656 -3.390625 0.671875 -3.765625 C 0.878906 -4.140625 1.160156 -4.429688 1.515625 -4.640625 C 1.867188 -4.847656 2.257812 -4.953125 2.6875 -4.953125 C 3.113281 -4.953125 3.484375 -4.859375 3.796875 -4.671875 C 4.117188 -4.492188 4.351562 -4.265625 4.5 -3.984375 L 4.5 -4.875 L 5.328125 -4.875 L 5.328125 0 L 4.5 0 L 4.5 -0.90625 C 4.34375 -0.625 4.101562 -0.390625 3.78125 -0.203125 C 3.46875 -0.015625 3.101562 0.078125 2.6875 0.078125 C 2.25 0.078125 1.851562 -0.0234375 1.5 -0.234375 C 1.15625 -0.453125 0.878906 -0.753906 0.671875 -1.140625 C 0.472656 -1.523438 0.375 -1.960938 0.375 -2.453125 Z M 4.5 -2.4375 C 4.5 -2.8125 4.425781 -3.132812 4.28125 -3.40625 C 4.132812 -3.675781 3.9375 -3.882812 3.6875 -4.03125 C 3.4375 -4.175781 3.160156 -4.25 2.859375 -4.25 C 2.554688 -4.25 2.28125 -4.175781 2.03125 -4.03125 C 1.78125 -3.894531 1.578125 -3.6875 1.421875 -3.40625 C 1.273438 -3.132812 1.203125 -2.816406 1.203125 -2.453125 C 1.203125 -2.078125 1.273438 -1.75 1.421875 -1.46875 C 1.578125 -1.195312 1.78125 -0.988281 2.03125 -0.84375 C 2.28125 -0.695312 2.554688 -0.625 2.859375 -0.625 C 3.160156 -0.625 3.4375 -0.695312 3.6875 -0.84375 C 3.9375 -0.988281 4.132812 -1.195312 4.28125 -1.46875 C 4.425781 -1.75 4.5 -2.070312 4.5 -2.4375 Z M 4.5 -2.4375 "/></g></g></g><g fill="#ffffff" fill-opacity="1"><g transform="translate(66.761918, 58.415678)"><g><path d="M 1.5 -4.078125 C 1.632812 -4.359375 1.832031 -4.578125 2.09375 -4.734375 C 2.363281 -4.890625 2.6875 -4.96875 3.0625 -4.96875 L 3.0625 -4.125 L 2.859375 -4.125 C 1.953125 -4.125 1.5 -3.632812 1.5 -2.65625 L 1.5 0 L 0.6875 0 L 0.6875 -4.875 L 1.5 -4.875 Z M 1.5 -4.078125 "/></g></g></g><g fill="#ffffff" fill-opacity="1"><g transform="translate(70.075887, 58.415678)"><g><path d="M 1.671875 -4.203125 L 1.671875 -1.328125 C 1.671875 -1.097656 1.71875 -0.929688 1.8125 -0.828125 C 1.914062 -0.734375 2.09375 -0.6875 2.34375 -0.6875 L 2.9375 -0.6875 L 2.9375 0 L 2.21875 0 C 1.757812 0 1.414062 -0.101562 1.1875 -0.3125 C 0.96875 -0.519531 0.859375 -0.859375 0.859375 -1.328125 L 0.859375 -4.203125 L 0.234375 -4.203125 L 0.234375 -4.875 L 0.859375 -4.875 L 0.859375 -6.09375 L 1.671875 -6.09375 L 1.671875 -4.875 L 2.9375 -4.875 L 2.9375 -4.203125 Z M 1.671875 -4.203125 "/></g></g></g><g fill="#ffffff" fill-opacity="1"><g transform="translate(73.309901, 58.415678)"><g><path d="M 6.546875 -4.96875 C 6.921875 -4.96875 7.253906 -4.882812 7.546875 -4.71875 C 7.847656 -4.5625 8.082031 -4.328125 8.25 -4.015625 C 8.425781 -3.703125 8.515625 -3.320312 8.515625 -2.875 L 8.515625 0 L 7.71875 0 L 7.71875 -2.75 C 7.71875 -3.238281 7.597656 -3.613281 7.359375 -3.875 C 7.117188 -4.132812 6.796875 -4.265625 6.390625 -4.265625 C 5.960938 -4.265625 5.625 -4.128906 5.375 -3.859375 C 5.125 -3.585938 5 -3.195312 5 -2.6875 L 5 0 L 4.203125 0 L 4.203125 -2.75 C 4.203125 -3.238281 4.082031 -3.613281 3.84375 -3.875 C 3.601562 -4.132812 3.28125 -4.265625 2.875 -4.265625 C 2.445312 -4.265625 2.109375 -4.128906 1.859375 -3.859375 C 1.617188 -3.585938 1.5 -3.195312 1.5 -2.6875 L 1.5 0 L 0.6875 0 L 0.6875 -4.875 L 1.5 -4.875 L 1.5 -4.171875 C 1.65625 -4.421875 1.867188 -4.613281 2.140625 -4.75 C 2.410156 -4.894531 2.707031 -4.96875 3.03125 -4.96875 C 3.4375 -4.96875 3.796875 -4.875 4.109375 -4.6875 C 4.429688 -4.5 4.664062 -4.226562 4.8125 -3.875 C 4.945312 -4.21875 5.171875 -4.484375 5.484375 -4.671875 C 5.804688 -4.867188 6.160156 -4.96875 6.546875 -4.96875 Z M 6.546875 -4.96875 "/></g></g></g><g fill="#ffffff" fill-opacity="1"><g transform="translate(82.461083, 58.415678)"><g><path d="M 5.125 -2.625 C 5.125 -2.46875 5.117188 -2.304688 5.109375 -2.140625 L 1.203125 -2.140625 C 1.234375 -1.648438 1.398438 -1.269531 1.703125 -1 C 2.003906 -0.738281 2.367188 -0.609375 2.796875 -0.609375 C 3.140625 -0.609375 3.425781 -0.6875 3.65625 -0.84375 C 3.894531 -1.007812 4.0625 -1.226562 4.15625 -1.5 L 5.03125 -1.5 C 4.90625 -1.03125 4.644531 -0.648438 4.25 -0.359375 C 3.851562 -0.0664062 3.367188 0.078125 2.796875 0.078125 C 2.328125 0.078125 1.910156 -0.0234375 1.546875 -0.234375 C 1.179688 -0.441406 0.894531 -0.734375 0.6875 -1.109375 C 0.476562 -1.492188 0.375 -1.9375 0.375 -2.4375 C 0.375 -2.945312 0.472656 -3.390625 0.671875 -3.765625 C 0.878906 -4.148438 1.164062 -4.441406 1.53125 -4.640625 C 1.894531 -4.847656 2.316406 -4.953125 2.796875 -4.953125 C 3.253906 -4.953125 3.660156 -4.847656 4.015625 -4.640625 C 4.367188 -4.441406 4.640625 -4.164062 4.828125 -3.8125 C 5.023438 -3.46875 5.125 -3.070312 5.125 -2.625 Z M 4.296875 -2.796875 C 4.296875 -3.097656 4.226562 -3.359375 4.09375 -3.578125 C 3.957031 -3.804688 3.769531 -3.976562 3.53125 -4.09375 C 3.300781 -4.207031 3.039062 -4.265625 2.75 -4.265625 C 2.34375 -4.265625 1.992188 -4.132812 1.703125 -3.875 C 1.421875 -3.613281 1.257812 -3.253906 1.21875 -2.796875 Z M 4.296875 -2.796875 "/></g></g></g><g fill="#ffffff" fill-opacity="1"><g transform="translate(87.969564, 58.415678)"><g><path d="M 3.0625 -4.96875 C 3.65625 -4.96875 4.132812 -4.785156 4.5 -4.421875 C 4.863281 -4.066406 5.046875 -3.550781 5.046875 -2.875 L 5.046875 0 L 4.25 0 L 4.25 -2.75 C 4.25 -3.238281 4.125 -3.613281 3.875 -3.875 C 3.632812 -4.132812 3.304688 -4.265625 2.890625 -4.265625 C 2.460938 -4.265625 2.125 -4.128906 1.875 -3.859375 C 1.625 -3.585938 1.5 -3.195312 1.5 -2.6875 L 1.5 0 L 0.6875 0 L 0.6875 -4.875 L 1.5 -4.875 L 1.5 -4.171875 C 1.65625 -4.421875 1.867188 -4.613281 2.140625 -4.75 C 2.421875 -4.894531 2.726562 -4.96875 3.0625 -4.96875 Z M 3.0625 -4.96875 "/></g></g></g><g fill="#ffffff" fill-opacity="1"><g transform="translate(93.655736, 58.415678)"><g><path d="M 1.671875 -4.203125 L 1.671875 -1.328125 C 1.671875 -1.097656 1.71875 -0.929688 1.8125 -0.828125 C 1.914062 -0.734375 2.09375 -0.6875 2.34375 -0.6875 L 2.9375 -0.6875 L 2.9375 0 L 2.21875 0 C 1.757812 0 1.414062 -0.101562 1.1875 -0.3125 C 0.96875 -0.519531 0.859375 -0.859375 0.859375 -1.328125 L 0.859375 -4.203125 L 0.234375 -4.203125 L 0.234375 -4.875 L 0.859375 -4.875 L 0.859375 -6.09375 L 1.671875 -6.09375 L 1.671875 -4.875 L 2.9375 -4.875 L 2.9375 -4.203125 Z M 1.671875 -4.203125 "/></g></g></g><g fill="#ffffff" fill-opacity="1"><g transform="translate(96.889749, 58.415678)"><g/></g></g><g fill="#ffffff" fill-opacity="1"><g transform="translate(99.261952, 58.415678)"><g><path d="M 2.8125 0.078125 C 2.351562 0.078125 1.9375 -0.0234375 1.5625 -0.234375 C 1.195312 -0.441406 0.90625 -0.734375 0.6875 -1.109375 C 0.476562 -1.492188 0.375 -1.9375 0.375 -2.4375 C 0.375 -2.9375 0.484375 -3.378906 0.703125 -3.765625 C 0.921875 -4.148438 1.21875 -4.441406 1.59375 -4.640625 C 1.96875 -4.847656 2.382812 -4.953125 2.84375 -4.953125 C 3.300781 -4.953125 3.71875 -4.847656 4.09375 -4.640625 C 4.46875 -4.441406 4.765625 -4.148438 4.984375 -3.765625 C 5.203125 -3.390625 5.3125 -2.945312 5.3125 -2.4375 C 5.3125 -1.9375 5.195312 -1.492188 4.96875 -1.109375 C 4.75 -0.734375 4.445312 -0.441406 4.0625 -0.234375 C 3.6875 -0.0234375 3.269531 0.078125 2.8125 0.078125 Z M 2.8125 -0.625 C 3.101562 -0.625 3.375 -0.691406 3.625 -0.828125 C 3.882812 -0.972656 4.09375 -1.179688 4.25 -1.453125 C 4.40625 -1.722656 4.484375 -2.050781 4.484375 -2.4375 C 4.484375 -2.832031 4.40625 -3.164062 4.25 -3.4375 C 4.09375 -3.707031 3.890625 -3.910156 3.640625 -4.046875 C 3.390625 -4.179688 3.125 -4.25 2.84375 -4.25 C 2.539062 -4.25 2.265625 -4.179688 2.015625 -4.046875 C 1.773438 -3.910156 1.578125 -3.707031 1.421875 -3.4375 C 1.273438 -3.164062 1.203125 -2.832031 1.203125 -2.4375 C 1.203125 -2.039062 1.273438 -1.707031 1.421875 -1.4375 C 1.566406 -1.164062 1.757812 -0.960938 2 -0.828125 C 2.25 -0.691406 2.519531 -0.625 2.8125 -0.625 Z M 2.8125 -0.625 "/></g></g></g><g fill="#ffffff" fill-opacity="1"><g transform="translate(104.948124, 58.415678)"><g><path d="M 2.671875 -4.203125 L 1.640625 -4.203125 L 1.640625 0 L 0.828125 0 L 0.828125 -4.203125 L 0.203125 -4.203125 L 0.203125 -4.875 L 0.828125 -4.875 L 0.828125 -5.21875 C 0.828125 -5.757812 0.96875 -6.15625 1.25 -6.40625 C 1.539062 -6.664062 1.992188 -6.796875 2.609375 -6.796875 L 2.609375 -6.109375 C 2.253906 -6.109375 2.003906 -6.039062 1.859375 -5.90625 C 1.710938 -5.769531 1.640625 -5.539062 1.640625 -5.21875 L 1.640625 -4.875 L 2.671875 -4.875 Z M 2.671875 -4.203125 "/></g></g></g><g fill="#ffffff" fill-opacity="1"><g transform="translate(107.871175, 58.415678)"><g/></g></g><g fill="#ffffff" fill-opacity="1"><g transform="translate(110.243378, 58.415678)"><g><path d="M 0.375 -3.109375 C 0.375 -3.710938 0.507812 -4.253906 0.78125 -4.734375 C 1.0625 -5.210938 1.4375 -5.585938 1.90625 -5.859375 C 2.375 -6.140625 2.894531 -6.28125 3.46875 -6.28125 C 4.144531 -6.28125 4.734375 -6.113281 5.234375 -5.78125 C 5.742188 -5.457031 6.113281 -5 6.34375 -4.40625 L 5.375 -4.40625 C 5.207031 -4.78125 4.960938 -5.066406 4.640625 -5.265625 C 4.316406 -5.460938 3.925781 -5.5625 3.46875 -5.5625 C 3.039062 -5.5625 2.65625 -5.460938 2.3125 -5.265625 C 1.96875 -5.066406 1.695312 -4.78125 1.5 -4.40625 C 1.300781 -4.03125 1.203125 -3.597656 1.203125 -3.109375 C 1.203125 -2.609375 1.300781 -2.171875 1.5 -1.796875 C 1.695312 -1.429688 1.96875 -1.148438 2.3125 -0.953125 C 2.65625 -0.753906 3.039062 -0.65625 3.46875 -0.65625 C 3.925781 -0.65625 4.316406 -0.753906 4.640625 -0.953125 C 4.960938 -1.148438 5.207031 -1.4375 5.375 -1.8125 L 6.34375 -1.8125 C 6.113281 -1.21875 5.742188 -0.757812 5.234375 -0.4375 C 4.734375 -0.113281 4.144531 0.046875 3.46875 0.046875 C 2.894531 0.046875 2.375 -0.0820312 1.90625 -0.34375 C 1.4375 -0.613281 1.0625 -0.988281 0.78125 -1.46875 C 0.507812 -1.957031 0.375 -2.503906 0.375 -3.109375 Z M 0.375 -3.109375 "/></g></g></g><g fill="#ffffff" fill-opacity="1"><g transform="translate(117.102322, 58.415678)"><g><path d="M 2.8125 0.078125 C 2.351562 0.078125 1.9375 -0.0234375 1.5625 -0.234375 C 1.195312 -0.441406 0.90625 -0.734375 0.6875 -1.109375 C 0.476562 -1.492188 0.375 -1.9375 0.375 -2.4375 C 0.375 -2.9375 0.484375 -3.378906 0.703125 -3.765625 C 0.921875 -4.148438 1.21875 -4.441406 1.59375 -4.640625 C 1.96875 -4.847656 2.382812 -4.953125 2.84375 -4.953125 C 3.300781 -4.953125 3.71875 -4.847656 4.09375 -4.640625 C 4.46875 -4.441406 4.765625 -4.148438 4.984375 -3.765625 C 5.203125 -3.390625 5.3125 -2.945312 5.3125 -2.4375 C 5.3125 -1.9375 5.195312 -1.492188 4.96875 -1.109375 C 4.75 -0.734375 4.445312 -0.441406 4.0625 -0.234375 C 3.6875 -0.0234375 3.269531 0.078125 2.8125 0.078125 Z M 2.8125 -0.625 C 3.101562 -0.625 3.375 -0.691406 3.625 -0.828125 C 3.882812 -0.972656 4.09375 -1.179688 4.25 -1.453125 C 4.40625 -1.722656 4.484375 -2.050781 4.484375 -2.4375 C 4.484375 -2.832031 4.40625 -3.164062 4.25 -3.4375 C 4.09375 -3.707031 3.890625 -3.910156 3.640625 -4.046875 C 3.390625 -4.179688 3.125 -4.25 2.84375 -4.25 C 2.539062 -4.25 2.265625 -4.179688 2.015625 -4.046875 C 1.773438 -3.910156 1.578125 -3.707031 1.421875 -3.4375 C 1.273438 -3.164062 1.203125 -2.832031 1.203125 -2.4375 C 1.203125 -2.039062 1.273438 -1.707031 1.421875 -1.4375 C 1.566406 -1.164062 1.757812 -0.960938 2 -0.828125 C 2.25 -0.691406 2.519531 -0.625 2.8125 -0.625 Z M 2.8125 -0.625 "/></g></g></g><g fill="#ffffff" fill-opacity="1"><g transform="translate(122.788494, 58.415678)"><g><path d="M 6.546875 -4.96875 C 6.921875 -4.96875 7.253906 -4.882812 7.546875 -4.71875 C 7.847656 -4.5625 8.082031 -4.328125 8.25 -4.015625 C 8.425781 -3.703125 8.515625 -3.320312 8.515625 -2.875 L 8.515625 0 L 7.71875 0 L 7.71875 -2.75 C 7.71875 -3.238281 7.597656 -3.613281 7.359375 -3.875 C 7.117188 -4.132812 6.796875 -4.265625 6.390625 -4.265625 C 5.960938 -4.265625 5.625 -4.128906 5.375 -3.859375 C 5.125 -3.585938 5 -3.195312 5 -2.6875 L 5 0 L 4.203125 0 L 4.203125 -2.75 C 4.203125 -3.238281 4.082031 -3.613281 3.84375 -3.875 C 3.601562 -4.132812 3.28125 -4.265625 2.875 -4.265625 C 2.445312 -4.265625 2.109375 -4.128906 1.859375 -3.859375 C 1.617188 -3.585938 1.5 -3.195312 1.5 -2.6875 L 1.5 0 L 0.6875 0 L 0.6875 -4.875 L 1.5 -4.875 L 1.5 -4.171875 C 1.65625 -4.421875 1.867188 -4.613281 2.140625 -4.75 C 2.410156 -4.894531 2.707031 -4.96875 3.03125 -4.96875 C 3.4375 -4.96875 3.796875 -4.875 4.109375 -4.6875 C 4.429688 -4.5 4.664062 -4.226562 4.8125 -3.875 C 4.945312 -4.21875 5.171875 -4.484375 5.484375 -4.671875 C 5.804688 -4.867188 6.160156 -4.96875 6.546875 -4.96875 Z M 6.546875 -4.96875 "/></g></g></g><g fill="#ffffff" fill-opacity="1"><g transform="translate(131.939676, 58.415678)"><g><path d="M 1.5 -3.96875 C 1.65625 -4.25 1.890625 -4.484375 2.203125 -4.671875 C 2.523438 -4.859375 2.894531 -4.953125 3.3125 -4.953125 C 3.75 -4.953125 4.140625 -4.847656 4.484375 -4.640625 C 4.835938 -4.429688 5.113281 -4.140625 5.3125 -3.765625 C 5.519531 -3.390625 5.625 -2.953125 5.625 -2.453125 C 5.625 -1.960938 5.519531 -1.523438 5.3125 -1.140625 C 5.113281 -0.753906 4.835938 -0.453125 4.484375 -0.234375 C 4.140625 -0.0234375 3.75 0.078125 3.3125 0.078125 C 2.894531 0.078125 2.53125 -0.015625 2.21875 -0.203125 C 1.90625 -0.390625 1.664062 -0.617188 1.5 -0.890625 L 1.5 2.3125 L 0.6875 2.3125 L 0.6875 -4.875 L 1.5 -4.875 Z M 4.796875 -2.453125 C 4.796875 -2.816406 4.722656 -3.132812 4.578125 -3.40625 C 4.429688 -3.6875 4.226562 -3.894531 3.96875 -4.03125 C 3.71875 -4.175781 3.441406 -4.25 3.140625 -4.25 C 2.847656 -4.25 2.578125 -4.175781 2.328125 -4.03125 C 2.078125 -3.882812 1.875 -3.671875 1.71875 -3.390625 C 1.570312 -3.117188 1.5 -2.800781 1.5 -2.4375 C 1.5 -2.070312 1.570312 -1.75 1.71875 -1.46875 C 1.875 -1.195312 2.078125 -0.988281 2.328125 -0.84375 C 2.578125 -0.695312 2.847656 -0.625 3.140625 -0.625 C 3.441406 -0.625 3.71875 -0.695312 3.96875 -0.84375 C 4.226562 -0.988281 4.429688 -1.195312 4.578125 -1.46875 C 4.722656 -1.75 4.796875 -2.078125 4.796875 -2.453125 Z M 4.796875 -2.453125 "/></g></g></g><g fill="#ffffff" fill-opacity="1"><g transform="translate(137.945699, 58.415678)"><g><path d="M 5 -4.875 L 5 0 L 4.203125 0 L 4.203125 -0.71875 C 4.046875 -0.46875 3.828125 -0.269531 3.546875 -0.125 C 3.273438 0.0078125 2.972656 0.078125 2.640625 0.078125 C 2.265625 0.078125 1.925781 0 1.625 -0.15625 C 1.320312 -0.320312 1.082031 -0.5625 0.90625 -0.875 C 0.726562 -1.1875 0.640625 -1.566406 0.640625 -2.015625 L 0.640625 -4.875 L 1.4375 -4.875 L 1.4375 -2.125 C 1.4375 -1.644531 1.554688 -1.273438 1.796875 -1.015625 C 2.046875 -0.753906 2.378906 -0.625 2.796875 -0.625 C 3.234375 -0.625 3.578125 -0.757812 3.828125 -1.03125 C 4.078125 -1.300781 4.203125 -1.691406 4.203125 -2.203125 L 4.203125 -4.875 Z M 5 -4.875 "/></g></g></g><g fill="#ffffff" fill-opacity="1"><g transform="translate(143.631871, 58.415678)"><g><path d="M 1.671875 -4.203125 L 1.671875 -1.328125 C 1.671875 -1.097656 1.71875 -0.929688 1.8125 -0.828125 C 1.914062 -0.734375 2.09375 -0.6875 2.34375 -0.6875 L 2.9375 -0.6875 L 2.9375 0 L 2.21875 0 C 1.757812 0 1.414062 -0.101562 1.1875 -0.3125 C 0.96875 -0.519531 0.859375 -0.859375 0.859375 -1.328125 L 0.859375 -4.203125 L 0.234375 -4.203125 L 0.234375 -4.875 L 0.859375 -4.875 L 0.859375 -6.09375 L 1.671875 -6.09375 L 1.671875 -4.875 L 2.9375 -4.875 L 2.9375 -4.203125 Z M 1.671875 -4.203125 "/></g></g></g><g fill="#ffffff" fill-opacity="1"><g transform="translate(146.865884, 58.415678)"><g><path d="M 5.125 -2.625 C 5.125 -2.46875 5.117188 -2.304688 5.109375 -2.140625 L 1.203125 -2.140625 C 1.234375 -1.648438 1.398438 -1.269531 1.703125 -1 C 2.003906 -0.738281 2.367188 -0.609375 2.796875 -0.609375 C 3.140625 -0.609375 3.425781 -0.6875 3.65625 -0.84375 C 3.894531 -1.007812 4.0625 -1.226562 4.15625 -1.5 L 5.03125 -1.5 C 4.90625 -1.03125 4.644531 -0.648438 4.25 -0.359375 C 3.851562 -0.0664062 3.367188 0.078125 2.796875 0.078125 C 2.328125 0.078125 1.910156 -0.0234375 1.546875 -0.234375 C 1.179688 -0.441406 0.894531 -0.734375 0.6875 -1.109375 C 0.476562 -1.492188 0.375 -1.9375 0.375 -2.4375 C 0.375 -2.945312 0.472656 -3.390625 0.671875 -3.765625 C 0.878906 -4.148438 1.164062 -4.441406 1.53125 -4.640625 C 1.894531 -4.847656 2.316406 -4.953125 2.796875 -4.953125 C 3.253906 -4.953125 3.660156 -4.847656 4.015625 -4.640625 C 4.367188 -4.441406 4.640625 -4.164062 4.828125 -3.8125 C 5.023438 -3.46875 5.125 -3.070312 5.125 -2.625 Z M 4.296875 -2.796875 C 4.296875 -3.097656 4.226562 -3.359375 4.09375 -3.578125 C 3.957031 -3.804688 3.769531 -3.976562 3.53125 -4.09375 C 3.300781 -4.207031 3.039062 -4.265625 2.75 -4.265625 C 2.34375 -4.265625 1.992188 -4.132812 1.703125 -3.875 C 1.421875 -3.613281 1.257812 -3.253906 1.21875 -2.796875 Z M 4.296875 -2.796875 "/></g></g></g><g fill="#ffffff" fill-opacity="1"><g transform="translate(152.374366, 58.415678)"><g><path d="M 1.5 -4.078125 C 1.632812 -4.359375 1.832031 -4.578125 2.09375 -4.734375 C 2.363281 -4.890625 2.6875 -4.96875 3.0625 -4.96875 L 3.0625 -4.125 L 2.859375 -4.125 C 1.953125 -4.125 1.5 -3.632812 1.5 -2.65625 L 1.5 0 L 0.6875 0 L 0.6875 -4.875 L 1.5 -4.875 Z M 1.5 -4.078125 "/></g></g></g><g fill="#ffffff" fill-opacity="1"><g transform="translate(155.688335, 58.415678)"><g/></g></g><g fill="#ffffff" fill-opacity="1"><g transform="translate(158.060538, 58.415678)"><g><path d="M 1.5 -5.53125 L 1.5 -3.46875 L 3.75 -3.46875 L 3.75 -2.796875 L 1.5 -2.796875 L 1.5 -0.671875 L 4.015625 -0.671875 L 4.015625 0 L 0.6875 0 L 0.6875 -6.203125 L 4.015625 -6.203125 L 4.015625 -5.53125 Z M 1.5 -5.53125 "/></g></g></g><g fill="#ffffff" fill-opacity="1"><g transform="translate(162.618365, 58.415678)"><g><path d="M 3.0625 -4.96875 C 3.65625 -4.96875 4.132812 -4.785156 4.5 -4.421875 C 4.863281 -4.066406 5.046875 -3.550781 5.046875 -2.875 L 5.046875 0 L 4.25 0 L 4.25 -2.75 C 4.25 -3.238281 4.125 -3.613281 3.875 -3.875 C 3.632812 -4.132812 3.304688 -4.265625 2.890625 -4.265625 C 2.460938 -4.265625 2.125 -4.128906 1.875 -3.859375 C 1.625 -3.585938 1.5 -3.195312 1.5 -2.6875 L 1.5 0 L 0.6875 0 L 0.6875 -4.875 L 1.5 -4.875 L 1.5 -4.171875 C 1.65625 -4.421875 1.867188 -4.613281 2.140625 -4.75 C 2.421875 -4.894531 2.726562 -4.96875 3.0625 -4.96875 Z M 3.0625 -4.96875 "/></g></g></g><g fill="#ffffff" fill-opacity="1"><g transform="translate(168.304537, 58.415678)"><g><path d="M 2.6875 -4.953125 C 3.113281 -4.953125 3.484375 -4.859375 3.796875 -4.671875 C 4.117188 -4.492188 4.351562 -4.265625 4.5 -3.984375 L 4.5 -4.875 L 5.328125 -4.875 L 5.328125 0.109375 C 5.328125 0.554688 5.226562 0.953125 5.03125 1.296875 C 4.84375 1.640625 4.570312 1.910156 4.21875 2.109375 C 3.875 2.304688 3.46875 2.40625 3 2.40625 C 2.351562 2.40625 1.816406 2.253906 1.390625 1.953125 C 0.960938 1.648438 0.710938 1.238281 0.640625 0.71875 L 1.4375 0.71875 C 1.53125 1.007812 1.710938 1.242188 1.984375 1.421875 C 2.265625 1.609375 2.601562 1.703125 3 1.703125 C 3.4375 1.703125 3.796875 1.5625 4.078125 1.28125 C 4.359375 1 4.5 0.609375 4.5 0.109375 L 4.5 -0.921875 C 4.34375 -0.628906 4.109375 -0.390625 3.796875 -0.203125 C 3.484375 -0.015625 3.113281 0.078125 2.6875 0.078125 C 2.257812 0.078125 1.867188 -0.0234375 1.515625 -0.234375 C 1.160156 -0.453125 0.878906 -0.753906 0.671875 -1.140625 C 0.472656 -1.523438 0.375 -1.960938 0.375 -2.453125 C 0.375 -2.953125 0.472656 -3.390625 0.671875 -3.765625 C 0.878906 -4.140625 1.160156 -4.429688 1.515625 -4.640625 C 1.867188 -4.847656 2.257812 -4.953125 2.6875 -4.953125 Z M 4.5 -2.4375 C 4.5 -2.8125 4.425781 -3.132812 4.28125 -3.40625 C 4.132812 -3.675781 3.9375 -3.882812 3.6875 -4.03125 C 3.4375 -4.175781 3.160156 -4.25 2.859375 -4.25 C 2.554688 -4.25 2.28125 -4.175781 2.03125 -4.03125 C 1.78125 -3.894531 1.578125 -3.6875 1.421875 -3.40625 C 1.273438 -3.132812 1.203125 -2.816406 1.203125 -2.453125 C 1.203125 -2.078125 1.273438 -1.75 1.421875 -1.46875 C 1.578125 -1.195312 1.78125 -0.988281 2.03125 -0.84375 C 2.28125 -0.695312 2.554688 -0.625 2.859375 -0.625 C 3.160156 -0.625 3.4375 -0.695312 3.6875 -0.84375 C 3.9375 -0.988281 4.132812 -1.195312 4.28125 -1.46875 C 4.425781 -1.75 4.5 -2.070312 4.5 -2.4375 Z M 4.5 -2.4375 "/></g></g></g><g fill="#ffffff" fill-opacity="1"><g transform="translate(174.31056, 58.415678)"><g><path d="M 1.109375 -5.65625 C 0.953125 -5.65625 0.816406 -5.707031 0.703125 -5.8125 C 0.597656 -5.925781 0.546875 -6.0625 0.546875 -6.21875 C 0.546875 -6.375 0.597656 -6.503906 0.703125 -6.609375 C 0.816406 -6.710938 0.953125 -6.765625 1.109375 -6.765625 C 1.253906 -6.765625 1.378906 -6.710938 1.484375 -6.609375 C 1.585938 -6.503906 1.640625 -6.375 1.640625 -6.21875 C 1.640625 -6.0625 1.585938 -5.925781 1.484375 -5.8125 C 1.378906 -5.707031 1.253906 -5.65625 1.109375 -5.65625 Z M 1.5 -4.875 L 1.5 0 L 0.6875 0 L 0.6875 -4.875 Z M 1.5 -4.875 "/></g></g></g><g fill="#ffffff" fill-opacity="1"><g transform="translate(176.496183, 58.415678)"><g><path d="M 3.0625 -4.96875 C 3.65625 -4.96875 4.132812 -4.785156 4.5 -4.421875 C 4.863281 -4.066406 5.046875 -3.550781 5.046875 -2.875 L 5.046875 0 L 4.25 0 L 4.25 -2.75 C 4.25 -3.238281 4.125 -3.613281 3.875 -3.875 C 3.632812 -4.132812 3.304688 -4.265625 2.890625 -4.265625 C 2.460938 -4.265625 2.125 -4.128906 1.875 -3.859375 C 1.625 -3.585938 1.5 -3.195312 1.5 -2.6875 L 1.5 0 L 0.6875 0 L 0.6875 -4.875 L 1.5 -4.875 L 1.5 -4.171875 C 1.65625 -4.421875 1.867188 -4.613281 2.140625 -4.75 C 2.421875 -4.894531 2.726562 -4.96875 3.0625 -4.96875 Z M 3.0625 -4.96875 "/></g></g></g><g fill="#ffffff" fill-opacity="1"><g transform="translate(182.182355, 58.415678)"><g><path d="M 5.125 -2.625 C 5.125 -2.46875 5.117188 -2.304688 5.109375 -2.140625 L 1.203125 -2.140625 C 1.234375 -1.648438 1.398438 -1.269531 1.703125 -1 C 2.003906 -0.738281 2.367188 -0.609375 2.796875 -0.609375 C 3.140625 -0.609375 3.425781 -0.6875 3.65625 -0.84375 C 3.894531 -1.007812 4.0625 -1.226562 4.15625 -1.5 L 5.03125 -1.5 C 4.90625 -1.03125 4.644531 -0.648438 4.25 -0.359375 C 3.851562 -0.0664062 3.367188 0.078125 2.796875 0.078125 C 2.328125 0.078125 1.910156 -0.0234375 1.546875 -0.234375 C 1.179688 -0.441406 0.894531 -0.734375 0.6875 -1.109375 C 0.476562 -1.492188 0.375 -1.9375 0.375 -2.4375 C 0.375 -2.945312 0.472656 -3.390625 0.671875 -3.765625 C 0.878906 -4.148438 1.164062 -4.441406 1.53125 -4.640625 C 1.894531 -4.847656 2.316406 -4.953125 2.796875 -4.953125 C 3.253906 -4.953125 3.660156 -4.847656 4.015625 -4.640625 C 4.367188 -4.441406 4.640625 -4.164062 4.828125 -3.8125 C 5.023438 -3.46875 5.125 -3.070312 5.125 -2.625 Z M 4.296875 -2.796875 C 4.296875 -3.097656 4.226562 -3.359375 4.09375 -3.578125 C 3.957031 -3.804688 3.769531 -3.976562 3.53125 -4.09375 C 3.300781 -4.207031 3.039062 -4.265625 2.75 -4.265625 C 2.34375 -4.265625 1.992188 -4.132812 1.703125 -3.875 C 1.421875 -3.613281 1.257812 -3.253906 1.21875 -2.796875 Z M 4.296875 -2.796875 "/></g></g></g><g fill="#ffffff" fill-opacity="1"><g transform="translate(187.690837, 58.415678)"><g><path d="M 5.125 -2.625 C 5.125 -2.46875 5.117188 -2.304688 5.109375 -2.140625 L 1.203125 -2.140625 C 1.234375 -1.648438 1.398438 -1.269531 1.703125 -1 C 2.003906 -0.738281 2.367188 -0.609375 2.796875 -0.609375 C 3.140625 -0.609375 3.425781 -0.6875 3.65625 -0.84375 C 3.894531 -1.007812 4.0625 -1.226562 4.15625 -1.5 L 5.03125 -1.5 C 4.90625 -1.03125 4.644531 -0.648438 4.25 -0.359375 C 3.851562 -0.0664062 3.367188 0.078125 2.796875 0.078125 C 2.328125 0.078125 1.910156 -0.0234375 1.546875 -0.234375 C 1.179688 -0.441406 0.894531 -0.734375 0.6875 -1.109375 C 0.476562 -1.492188 0.375 -1.9375 0.375 -2.4375 C 0.375 -2.945312 0.472656 -3.390625 0.671875 -3.765625 C 0.878906 -4.148438 1.164062 -4.441406 1.53125 -4.640625 C 1.894531 -4.847656 2.316406 -4.953125 2.796875 -4.953125 C 3.253906 -4.953125 3.660156 -4.847656 4.015625 -4.640625 C 4.367188 -4.441406 4.640625 -4.164062 4.828125 -3.8125 C 5.023438 -3.46875 5.125 -3.070312 5.125 -2.625 Z M 4.296875 -2.796875 C 4.296875 -3.097656 4.226562 -3.359375 4.09375 -3.578125 C 3.957031 -3.804688 3.769531 -3.976562 3.53125 -4.09375 C 3.300781 -4.207031 3.039062 -4.265625 2.75 -4.265625 C 2.34375 -4.265625 1.992188 -4.132812 1.703125 -3.875 C 1.421875 -3.613281 1.257812 -3.253906 1.21875 -2.796875 Z M 4.296875 -2.796875 "/></g></g></g><g fill="#ffffff" fill-opacity="1"><g transform="translate(193.199319, 58.415678)"><g><path d="M 1.5 -4.078125 C 1.632812 -4.359375 1.832031 -4.578125 2.09375 -4.734375 C 2.363281 -4.890625 2.6875 -4.96875 3.0625 -4.96875 L 3.0625 -4.125 L 2.859375 -4.125 C 1.953125 -4.125 1.5 -3.632812 1.5 -2.65625 L 1.5 0 L 0.6875 0 L 0.6875 -4.875 L 1.5 -4.875 Z M 1.5 -4.078125 "/></g></g></g><g fill="#ffffff" fill-opacity="1"><g transform="translate(196.513288, 58.415678)"><g><path d="M 1.109375 -5.65625 C 0.953125 -5.65625 0.816406 -5.707031 0.703125 -5.8125 C 0.597656 -5.925781 0.546875 -6.0625 0.546875 -6.21875 C 0.546875 -6.375 0.597656 -6.503906 0.703125 -6.609375 C 0.816406 -6.710938 0.953125 -6.765625 1.109375 -6.765625 C 1.253906 -6.765625 1.378906 -6.710938 1.484375 -6.609375 C 1.585938 -6.503906 1.640625 -6.375 1.640625 -6.21875 C 1.640625 -6.0625 1.585938 -5.925781 1.484375 -5.8125 C 1.378906 -5.707031 1.253906 -5.65625 1.109375 -5.65625 Z M 1.5 -4.875 L 1.5 0 L 0.6875 0 L 0.6875 -4.875 Z M 1.5 -4.875 "/></g></g></g><g fill="#ffffff" fill-opacity="1"><g transform="translate(198.698912, 58.415678)"><g><path d="M 3.0625 -4.96875 C 3.65625 -4.96875 4.132812 -4.785156 4.5 -4.421875 C 4.863281 -4.066406 5.046875 -3.550781 5.046875 -2.875 L 5.046875 0 L 4.25 0 L 4.25 -2.75 C 4.25 -3.238281 4.125 -3.613281 3.875 -3.875 C 3.632812 -4.132812 3.304688 -4.265625 2.890625 -4.265625 C 2.460938 -4.265625 2.125 -4.128906 1.875 -3.859375 C 1.625 -3.585938 1.5 -3.195312 1.5 -2.6875 L 1.5 0 L 0.6875 0 L 0.6875 -4.875 L 1.5 -4.875 L 1.5 -4.171875 C 1.65625 -4.421875 1.867188 -4.613281 2.140625 -4.75 C 2.421875 -4.894531 2.726562 -4.96875 3.0625 -4.96875 Z M 3.0625 -4.96875 "/></g></g></g><g fill="#ffffff" fill-opacity="1"><g transform="translate(204.385084, 58.415678)"><g><path d="M 2.6875 -4.953125 C 3.113281 -4.953125 3.484375 -4.859375 3.796875 -4.671875 C 4.117188 -4.492188 4.351562 -4.265625 4.5 -3.984375 L 4.5 -4.875 L 5.328125 -4.875 L 5.328125 0.109375 C 5.328125 0.554688 5.226562 0.953125 5.03125 1.296875 C 4.84375 1.640625 4.570312 1.910156 4.21875 2.109375 C 3.875 2.304688 3.46875 2.40625 3 2.40625 C 2.351562 2.40625 1.816406 2.253906 1.390625 1.953125 C 0.960938 1.648438 0.710938 1.238281 0.640625 0.71875 L 1.4375 0.71875 C 1.53125 1.007812 1.710938 1.242188 1.984375 1.421875 C 2.265625 1.609375 2.601562 1.703125 3 1.703125 C 3.4375 1.703125 3.796875 1.5625 4.078125 1.28125 C 4.359375 1 4.5 0.609375 4.5 0.109375 L 4.5 -0.921875 C 4.34375 -0.628906 4.109375 -0.390625 3.796875 -0.203125 C 3.484375 -0.015625 3.113281 0.078125 2.6875 0.078125 C 2.257812 0.078125 1.867188 -0.0234375 1.515625 -0.234375 C 1.160156 -0.453125 0.878906 -0.753906 0.671875 -1.140625 C 0.472656 -1.523438 0.375 -1.960938 0.375 -2.453125 C 0.375 -2.953125 0.472656 -3.390625 0.671875 -3.765625 C 0.878906 -4.140625 1.160156 -4.429688 1.515625 -4.640625 C 1.867188 -4.847656 2.257812 -4.953125 2.6875 -4.953125 Z M 4.5 -2.4375 C 4.5 -2.8125 4.425781 -3.132812 4.28125 -3.40625 C 4.132812 -3.675781 3.9375 -3.882812 3.6875 -4.03125 C 3.4375 -4.175781 3.160156 -4.25 2.859375 -4.25 C 2.554688 -4.25 2.28125 -4.175781 2.03125 -4.03125 C 1.78125 -3.894531 1.578125 -3.6875 1.421875 -3.40625 C 1.273438 -3.132812 1.203125 -2.816406 1.203125 -2.453125 C 1.203125 -2.078125 1.273438 -1.75 1.421875 -1.46875 C 1.578125 -1.195312 1.78125 -0.988281 2.03125 -0.84375 C 2.28125 -0.695312 2.554688 -0.625 2.859375 -0.625 C 3.160156 -0.625 3.4375 -0.695312 3.6875 -0.84375 C 3.9375 -0.988281 4.132812 -1.195312 4.28125 -1.46875 C 4.425781 -1.75 4.5 -2.070312 4.5 -2.4375 Z M 4.5 -2.4375 "/></g></g></g><g fill="#ffffff" fill-opacity="1"><g transform="translate(210.394116, 58.415678)"><g/></g></g></svg>