<svg xmlns="http://www.w3.org/2000/svg" xmlns:xlink="http://www.w3.org/1999/xlink" width="327" zoomAndPan="magnify" viewBox="0 0 245.25 88.499997" height="118" preserveAspectRatio="xMidYMid meet" version="1.0"><defs><g/><clipPath id="185cdd6860"><path d="M 65 25 L 68.859375 25 L 68.859375 30 L 65 30 Z M 65 25 " clip-rule="nonzero"/></clipPath><clipPath id="2db4eeba52"><path d="M 44.6875 53 L 49.367188 53 L 49.367188 57.574219 L 44.6875 57.574219 Z M 44.6875 53 " clip-rule="nonzero"/></clipPath><clipPath id="f7486ca2aa"><path d="M 46 6.859375 L 51 6.859375 L 51 11 L 46 11 Z M 46 6.859375 " clip-rule="nonzero"/></clipPath><clipPath id="5e1b72d72f"><path d="M 15.90625 26 L 21 26 L 21 32 L 15.90625 32 Z M 15.90625 26 " clip-rule="nonzero"/></clipPath><clipPath id="fff52000a6"><path d="M 28 6.859375 L 34 6.859375 L 34 12 L 28 12 Z M 28 6.859375 " clip-rule="nonzero"/></clipPath><clipPath id="10688b5fef"><path d="M 68.890625 4.039062 L 84.550781 4.039062 L 84.550781 60.71875 L 68.890625 60.71875 Z M 68.890625 4.039062 " clip-rule="nonzero"/></clipPath><clipPath id="83a58d0998"><path d="M 0.316406 3.796875 L 15.894531 3.796875 L 15.894531 60.476562 L 0.316406 60.476562 Z M 0.316406 3.796875 " clip-rule="nonzero"/></clipPath></defs><path stroke-linecap="butt" transform="matrix(0, -0.745786, 0.745786, 0, 100.602482, 64.514469)" fill="none" stroke-linejoin="miter" d="M -0.00155008 0.99918 L 86.510521 0.99918 " stroke="#ffffff" stroke-width="2" stroke-opacity="1" stroke-miterlimit="4"/><g fill="#ffffff" fill-opacity="1"><g transform="translate(117.974994, 27.311357)"><g><path d="M 17.390625 0 L 4.140625 0 C 3.535156 0 2.976562 -0.144531 2.46875 -0.4375 C 1.96875 -0.738281 1.566406 -1.140625 1.265625 -1.640625 C 0.972656 -2.148438 0.828125 -2.707031 0.828125 -3.3125 L 0.828125 -13.25 C 0.828125 -13.851562 0.972656 -14.40625 1.265625 -14.90625 C 1.566406 -15.414062 1.96875 -15.816406 2.46875 -16.109375 C 2.976562 -16.410156 3.535156 -16.5625 4.140625 -16.5625 L 17.390625 -16.5625 L 17.390625 -13.25 L 4.140625 -13.25 L 4.140625 -3.3125 L 17.390625 -3.3125 Z M 17.390625 0 "/></g></g></g><g fill="#ffffff" fill-opacity="1"><g transform="translate(136.186346, 27.311357)"><g><path d="M 14.078125 0 L 4.140625 0 C 3.535156 0 2.976562 -0.144531 2.46875 -0.4375 C 1.96875 -0.738281 1.566406 -1.140625 1.265625 -1.640625 C 0.972656 -2.148438 0.828125 -2.707031 0.828125 -3.3125 L 0.828125 -13.25 C 0.828125 -13.851562 0.972656 -14.40625 1.265625 -14.90625 C 1.566406 -15.414062 1.96875 -15.816406 2.46875 -16.109375 C 2.976562 -16.410156 3.535156 -16.5625 4.140625 -16.5625 L 14.078125 -16.5625 C 14.679688 -16.5625 15.234375 -16.410156 15.734375 -16.109375 C 16.242188 -15.816406 16.644531 -15.414062 16.9375 -14.90625 C 17.238281 -14.40625 17.390625 -13.851562 17.390625 -13.25 L 17.390625 -3.3125 C 17.390625 -2.71875 17.238281 -2.164062 16.9375 -1.65625 C 16.644531 -1.15625 16.25 -0.753906 15.75 -0.453125 C 15.257812 -0.148438 14.703125 0 14.078125 0 Z M 4.140625 -13.25 L 4.140625 -3.3125 L 14.078125 -3.3125 L 14.078125 -13.25 Z M 4.140625 -13.25 "/></g></g></g><g fill="#ffffff" fill-opacity="1"><g transform="translate(154.397699, 27.311357)"><g><path d="M 14.078125 0 L 0.828125 0 L 0.828125 -16.5625 L 14.078125 -16.5625 C 14.679688 -16.5625 15.234375 -16.410156 15.734375 -16.109375 C 16.242188 -15.816406 16.644531 -15.414062 16.9375 -14.90625 C 17.238281 -14.40625 17.390625 -13.851562 17.390625 -13.25 L 17.390625 -3.3125 C 17.390625 -2.707031 17.238281 -2.148438 16.9375 -1.640625 C 16.644531 -1.140625 16.242188 -0.738281 15.734375 -0.4375 C 15.234375 -0.144531 14.679688 0 14.078125 0 Z M 4.140625 -13.25 L 4.140625 -3.3125 L 14.078125 -3.3125 L 14.078125 -13.25 Z M 4.140625 -13.25 "/></g></g></g><g fill="#ffffff" fill-opacity="1"><g transform="translate(172.609051, 27.311357)"><g><path d="M 17.390625 -16.5625 L 17.390625 -13.25 L 4.140625 -13.25 L 4.140625 -9.9375 L 17.390625 -9.9375 L 17.390625 -6.625 L 4.140625 -6.625 L 4.140625 -3.3125 L 17.390625 -3.3125 L 17.390625 0 L 4.140625 0 C 3.535156 0 2.976562 -0.144531 2.46875 -0.4375 C 1.96875 -0.738281 1.566406 -1.140625 1.265625 -1.640625 C 0.972656 -2.148438 0.828125 -2.707031 0.828125 -3.3125 L 0.828125 -13.25 C 0.828125 -13.851562 0.972656 -14.40625 1.265625 -14.90625 C 1.566406 -15.414062 1.96875 -15.816406 2.46875 -16.109375 C 2.976562 -16.410156 3.535156 -16.5625 4.140625 -16.5625 Z M 17.390625 -16.5625 "/></g></g></g><g fill="#ffffff" fill-opacity="1"><g transform="translate(190.820404, 27.311357)"><g><path d="M 17.390625 -13.25 L 17.390625 -9.9375 C 17.390625 -9.332031 17.238281 -8.773438 16.9375 -8.265625 C 16.644531 -7.765625 16.242188 -7.363281 15.734375 -7.0625 C 15.234375 -6.769531 14.679688 -6.625 14.078125 -6.625 L 10.765625 -6.625 L 14.078125 -3.3125 L 17.390625 -3.3125 L 17.390625 0 L 13.421875 0 C 12.953125 0 12.550781 -0.164062 12.21875 -0.5 L 6.09375 -6.625 L 4.140625 -6.625 L 4.140625 0 L 0.828125 0 L 0.828125 -16.5625 L 14.078125 -16.5625 C 14.679688 -16.5625 15.234375 -16.410156 15.734375 -16.109375 C 16.242188 -15.816406 16.644531 -15.414062 16.9375 -14.90625 C 17.238281 -14.40625 17.390625 -13.851562 17.390625 -13.25 Z M 14.078125 -13.25 L 4.140625 -13.25 L 4.140625 -9.9375 L 14.078125 -9.9375 Z M 14.078125 -13.25 "/></g></g></g><g fill="#ffffff" fill-opacity="1"><g transform="translate(209.031757, 27.311357)"><g><path d="M 1.65625 -9.9375 L 0 -9.9375 L 0 -13.25 L 1.65625 -13.25 L 1.65625 -16.5625 L 4.96875 -16.5625 L 4.96875 -13.25 C 4.96875 -12.644531 4.816406 -12.085938 4.515625 -11.578125 C 4.222656 -11.078125 3.820312 -10.675781 3.3125 -10.375 C 2.8125 -10.082031 2.257812 -9.9375 1.65625 -9.9375 Z M 1.65625 -9.9375 "/></g></g></g><g fill="#ffffff" fill-opacity="1"><g transform="translate(213.998492, 27.311357)"><g><path d="M 17.390625 -16.5625 L 17.390625 -13.25 L 4.140625 -13.25 L 4.140625 -9.9375 L 14.078125 -9.9375 C 14.679688 -9.9375 15.234375 -9.785156 15.734375 -9.484375 C 16.242188 -9.191406 16.644531 -8.789062 16.9375 -8.28125 C 17.238281 -7.78125 17.390625 -7.226562 17.390625 -6.625 L 17.390625 -3.3125 C 17.390625 -2.707031 17.238281 -2.148438 16.9375 -1.640625 C 16.644531 -1.140625 16.242188 -0.738281 15.734375 -0.4375 C 15.234375 -0.144531 14.679688 0 14.078125 0 L 0.828125 0 L 0.828125 -3.3125 L 14.078125 -3.3125 L 14.078125 -6.625 L 4.140625 -6.625 C 3.535156 -6.625 2.976562 -6.769531 2.46875 -7.0625 C 1.96875 -7.363281 1.566406 -7.765625 1.265625 -8.265625 C 0.972656 -8.773438 0.828125 -9.332031 0.828125 -9.9375 L 0.828125 -13.25 C 0.828125 -13.851562 0.972656 -14.40625 1.265625 -14.90625 C 1.566406 -15.414062 1.96875 -15.816406 2.46875 -16.109375 C 2.976562 -16.410156 3.535156 -16.5625 4.140625 -16.5625 Z M 17.390625 -16.5625 "/></g></g></g><g fill="#ffffff" fill-opacity="1"><g transform="translate(232.223166, 27.311357)"><g/></g></g><g fill="#ffffff" fill-opacity="1"><g transform="translate(141.116197, 56.267186)"><g><path d="M 17.390625 0 L 4.140625 0 C 3.535156 0 2.976562 -0.144531 2.46875 -0.4375 C 1.96875 -0.738281 1.566406 -1.140625 1.265625 -1.640625 C 0.972656 -2.148438 0.828125 -2.707031 0.828125 -3.3125 L 0.828125 -13.25 C 0.828125 -13.851562 0.972656 -14.40625 1.265625 -14.90625 C 1.566406 -15.414062 1.96875 -15.816406 2.46875 -16.109375 C 2.976562 -16.410156 3.535156 -16.5625 4.140625 -16.5625 L 17.390625 -16.5625 L 17.390625 -13.25 L 4.140625 -13.25 L 4.140625 -3.3125 L 17.390625 -3.3125 Z M 17.390625 0 "/></g></g></g><g fill="#ffffff" fill-opacity="1"><g transform="translate(159.32755, 56.267186)"><g><path d="M 17.390625 0 L 4.140625 0 C 3.535156 0 2.976562 -0.144531 2.46875 -0.4375 C 1.96875 -0.738281 1.566406 -1.140625 1.265625 -1.640625 C 0.972656 -2.148438 0.828125 -2.707031 0.828125 -3.3125 L 0.828125 -16.5625 L 4.140625 -16.5625 L 4.140625 -3.3125 L 17.390625 -3.3125 Z M 17.390625 0 "/></g></g></g><g fill="#ffffff" fill-opacity="1"><g transform="translate(177.538903, 56.267186)"><g><path d="M 14.078125 0 L 4.140625 0 C 3.535156 0 2.976562 -0.144531 2.46875 -0.4375 C 1.96875 -0.738281 1.566406 -1.140625 1.265625 -1.640625 C 0.972656 -2.148438 0.828125 -2.707031 0.828125 -3.3125 L 0.828125 -16.5625 L 4.140625 -16.5625 L 4.140625 -3.3125 L 14.078125 -3.3125 L 14.078125 -16.5625 L 17.390625 -16.5625 L 17.390625 -3.3125 C 17.390625 -2.707031 17.238281 -2.148438 16.9375 -1.640625 C 16.644531 -1.140625 16.242188 -0.738281 15.734375 -0.4375 C 15.234375 -0.144531 14.679688 0 14.078125 0 Z M 14.078125 0 "/></g></g></g><g fill="#ffffff" fill-opacity="1"><g transform="translate(195.750255, 56.267186)"><g><path d="M 17.390625 -13.25 L 17.390625 -9.9375 C 17.390625 -9.476562 17.226562 -9.085938 16.90625 -8.765625 C 16.582031 -8.441406 16.191406 -8.28125 15.734375 -8.28125 C 16.191406 -8.28125 16.582031 -8.117188 16.90625 -7.796875 C 17.226562 -7.472656 17.390625 -7.082031 17.390625 -6.625 L 17.390625 -3.3125 C 17.390625 -2.71875 17.238281 -2.164062 16.9375 -1.65625 C 16.644531 -1.15625 16.25 -0.753906 15.75 -0.453125 C 15.257812 -0.148438 14.703125 0 14.078125 0 L 0.828125 0 L 0.828125 -16.5625 L 14.078125 -16.5625 C 14.703125 -16.5625 15.257812 -16.410156 15.75 -16.109375 C 16.25 -15.804688 16.644531 -15.40625 16.9375 -14.90625 C 17.238281 -14.40625 17.390625 -13.851562 17.390625 -13.25 Z M 14.078125 -13.25 L 4.140625 -13.25 L 4.140625 -9.9375 L 14.078125 -9.9375 Z M 4.140625 -3.3125 L 14.078125 -3.3125 L 14.078125 -6.625 L 4.140625 -6.625 Z M 4.140625 -3.3125 "/></g></g></g><path fill="#ffffff" d="M 18.789062 16.722656 C 18.277344 16.722656 17.859375 17.140625 17.859375 17.652344 C 17.859375 18.164062 18.277344 18.578125 18.789062 18.578125 C 19.300781 18.578125 19.71875 18.164062 19.71875 17.652344 C 19.71875 17.140625 19.300781 16.722656 18.789062 16.722656 Z M 18.789062 19.578125 C 17.726562 19.578125 16.859375 18.714844 16.859375 17.652344 C 16.859375 16.589844 17.726562 15.722656 18.789062 15.722656 C 19.851562 15.722656 20.714844 16.589844 20.714844 17.652344 C 20.714844 18.714844 19.851562 19.578125 18.789062 19.578125 " fill-opacity="1" fill-rule="nonzero"/><path fill="#ffffff" d="M 18.285156 27.929688 C 18.273438 27.929688 18.265625 27.929688 18.257812 27.929688 C 17.980469 27.917969 17.769531 27.679688 17.785156 27.40625 L 18.210938 19.050781 C 18.226562 18.777344 18.464844 18.566406 18.738281 18.578125 C 19.011719 18.59375 19.222656 18.828125 19.210938 19.101562 L 18.78125 27.457031 C 18.769531 27.722656 18.546875 27.929688 18.285156 27.929688 " fill-opacity="1" fill-rule="nonzero"/><path fill="#ffffff" d="M 26.730469 32.941406 C 26.671875 32.941406 26.613281 32.933594 26.554688 32.910156 L 19.683594 30.3125 C 19.425781 30.214844 19.296875 29.925781 19.394531 29.667969 C 19.492188 29.410156 19.78125 29.28125 20.035156 29.378906 L 26.910156 31.976562 C 27.167969 32.074219 27.296875 32.359375 27.199219 32.621094 C 27.125 32.820312 26.933594 32.941406 26.730469 32.941406 " fill-opacity="1" fill-rule="nonzero"/><path fill="#ffffff" d="M 30.09375 39.714844 C 29.886719 39.714844 29.6875 39.582031 29.621094 39.371094 L 28.03125 34.460938 C 27.945312 34.199219 28.089844 33.917969 28.355469 33.832031 C 28.617188 33.746094 28.898438 33.890625 28.984375 34.15625 L 30.570312 39.0625 C 30.65625 39.324219 30.511719 39.605469 30.25 39.691406 C 30.199219 39.707031 30.148438 39.714844 30.09375 39.714844 " fill-opacity="1" fill-rule="nonzero"/><path fill="#ffffff" d="M 37.617188 42.507812 C 37.601562 42.507812 37.582031 42.507812 37.5625 42.507812 L 32.828125 41.984375 C 32.554688 41.957031 32.359375 41.707031 32.386719 41.433594 C 32.417969 41.160156 32.664062 40.960938 32.941406 40.992188 L 37.671875 41.511719 C 37.945312 41.542969 38.144531 41.789062 38.113281 42.0625 C 38.085938 42.320312 37.871094 42.507812 37.617188 42.507812 " fill-opacity="1" fill-rule="nonzero"/><path fill="#ffffff" d="M 48.570312 46.164062 C 48.511719 46.164062 48.453125 46.15625 48.394531 46.132812 L 40.882812 43.300781 C 40.625 43.203125 40.496094 42.914062 40.59375 42.65625 C 40.691406 42.398438 40.980469 42.269531 41.238281 42.367188 L 48.746094 45.199219 C 49.007812 45.296875 49.136719 45.582031 49.039062 45.84375 C 48.964844 46.042969 48.773438 46.164062 48.570312 46.164062 " fill-opacity="1" fill-rule="nonzero"/><path fill="#ffffff" d="M 51.238281 46.148438 C 51.039062 46.148438 50.851562 46.027344 50.773438 45.832031 C 50.671875 45.574219 50.796875 45.285156 51.054688 45.183594 L 60.605469 41.441406 C 60.859375 41.339844 61.152344 41.46875 61.25 41.722656 C 61.351562 41.980469 61.226562 42.269531 60.96875 42.371094 L 51.421875 46.113281 C 51.359375 46.136719 51.296875 46.148438 51.238281 46.148438 " fill-opacity="1" fill-rule="nonzero"/><path fill="#ffffff" d="M 62.992188 40.054688 C 62.941406 40.054688 62.890625 40.046875 62.839844 40.03125 C 62.578125 39.945312 62.433594 39.664062 62.519531 39.402344 L 66.039062 28.421875 C 66.125 28.15625 66.40625 28.011719 66.667969 28.097656 C 66.933594 28.179688 67.078125 28.460938 66.992188 28.726562 L 63.46875 39.707031 C 63.402344 39.921875 63.207031 40.054688 62.992188 40.054688 " fill-opacity="1" fill-rule="nonzero"/><path fill="#ffffff" d="M 66.21875 26.488281 C 66.046875 26.488281 65.882812 26.402344 65.789062 26.246094 L 60.285156 17.09375 C 60.144531 16.859375 60.21875 16.550781 60.457031 16.410156 C 60.691406 16.265625 61 16.34375 61.144531 16.578125 L 66.644531 25.730469 C 66.789062 25.96875 66.710938 26.273438 66.472656 26.417969 C 66.394531 26.464844 66.304688 26.488281 66.21875 26.488281 " fill-opacity="1" fill-rule="nonzero"/><path fill="#ffffff" d="M 58.242188 14.921875 C 58.160156 14.921875 58.074219 14.902344 57.996094 14.859375 L 49.394531 9.957031 C 49.15625 9.820312 49.070312 9.515625 49.207031 9.277344 C 49.34375 9.035156 49.648438 8.953125 49.890625 9.089844 L 58.488281 13.988281 C 58.730469 14.125 58.8125 14.429688 58.675781 14.671875 C 58.585938 14.832031 58.417969 14.921875 58.242188 14.921875 " fill-opacity="1" fill-rule="nonzero"/><path fill="#ffffff" d="M 32.539062 9.730469 C 32.269531 9.730469 32.046875 9.515625 32.039062 9.242188 C 32.035156 8.96875 32.25 8.738281 32.527344 8.730469 L 46.960938 8.355469 C 46.964844 8.351562 46.96875 8.351562 46.972656 8.351562 C 47.246094 8.351562 47.46875 8.570312 47.472656 8.839844 C 47.480469 9.117188 47.261719 9.347656 46.988281 9.351562 L 32.554688 9.730469 C 32.550781 9.730469 32.542969 9.730469 32.539062 9.730469 " fill-opacity="1" fill-rule="nonzero"/><path fill="#ffffff" d="M 19.957031 17.328125 C 19.800781 17.328125 19.644531 17.253906 19.546875 17.117188 C 19.390625 16.890625 19.445312 16.578125 19.671875 16.421875 L 29.007812 9.890625 C 29.234375 9.730469 29.542969 9.789062 29.703125 10.011719 C 29.859375 10.238281 29.804688 10.550781 29.578125 10.710938 L 20.246094 17.238281 C 20.15625 17.300781 20.058594 17.328125 19.957031 17.328125 " fill-opacity="1" fill-rule="nonzero"/><path fill="#ffffff" d="M 30.21875 20.351562 C 30.1875 20.351562 30.152344 20.351562 30.121094 20.34375 L 20.097656 18.40625 C 19.828125 18.355469 19.648438 18.089844 19.703125 17.820312 C 19.753906 17.550781 20.015625 17.371094 20.289062 17.425781 L 30.3125 19.363281 C 30.582031 19.414062 30.761719 19.675781 30.707031 19.949219 C 30.660156 20.1875 30.453125 20.351562 30.21875 20.351562 " fill-opacity="1" fill-rule="nonzero"/><path fill="#ffffff" d="M 19.699219 28.757812 C 19.535156 28.757812 19.371094 28.675781 19.277344 28.527344 C 19.128906 28.292969 19.199219 27.984375 19.429688 27.835938 L 30.246094 20.984375 C 30.476562 20.835938 30.785156 20.90625 30.933594 21.136719 C 31.082031 21.371094 31.011719 21.679688 30.78125 21.828125 L 19.964844 28.679688 C 19.882812 28.734375 19.789062 28.757812 19.699219 28.757812 " fill-opacity="1" fill-rule="nonzero"/><path fill="#ffffff" d="M 32.019531 18.636719 C 31.773438 18.636719 31.558594 18.457031 31.523438 18.207031 L 30.511719 11.113281 C 30.472656 10.84375 30.664062 10.589844 30.9375 10.550781 C 31.207031 10.511719 31.464844 10.699219 31.503906 10.972656 L 32.515625 18.066406 C 32.554688 18.339844 32.363281 18.59375 32.089844 18.632812 C 32.066406 18.636719 32.042969 18.636719 32.019531 18.636719 " fill-opacity="1" fill-rule="nonzero"/><path fill="#ffffff" d="M 28.523438 32.09375 C 28.46875 32.09375 28.417969 32.085938 28.363281 32.070312 C 28.101562 31.980469 27.960938 31.699219 28.050781 31.4375 L 31.167969 22.132812 C 31.253906 21.871094 31.539062 21.726562 31.800781 21.816406 C 32.0625 21.902344 32.203125 22.1875 32.113281 22.449219 L 28.996094 31.753906 C 28.925781 31.964844 28.730469 32.09375 28.523438 32.09375 " fill-opacity="1" fill-rule="nonzero"/><path fill="#ffffff" d="M 45.363281 17.972656 C 45.308594 17.972656 45.253906 17.964844 45.199219 17.945312 C 44.9375 17.851562 44.800781 17.566406 44.894531 17.308594 L 47.457031 10 C 47.546875 9.738281 47.832031 9.601562 48.09375 9.691406 C 48.355469 9.785156 48.492188 10.070312 48.402344 10.328125 L 45.835938 17.636719 C 45.761719 17.84375 45.570312 17.972656 45.363281 17.972656 " fill-opacity="1" fill-rule="nonzero"/><path fill="#ffffff" d="M 34.453125 20.570312 C 34.199219 20.570312 33.980469 20.375 33.957031 20.113281 C 33.933594 19.839844 34.136719 19.597656 34.410156 19.570312 L 42.949219 18.816406 C 43.226562 18.792969 43.46875 18.996094 43.492188 19.269531 C 43.515625 19.546875 43.3125 19.789062 43.039062 19.8125 L 34.5 20.566406 C 34.484375 20.570312 34.46875 20.570312 34.453125 20.570312 " fill-opacity="1" fill-rule="nonzero"/><path fill="#ffffff" d="M 40.789062 29.082031 C 40.722656 29.082031 40.65625 29.070312 40.59375 29.042969 C 40.339844 28.933594 40.222656 28.640625 40.328125 28.386719 L 43.617188 20.609375 C 43.726562 20.355469 44.015625 20.234375 44.273438 20.34375 C 44.527344 20.449219 44.644531 20.742188 44.539062 20.996094 L 41.25 28.777344 C 41.167969 28.964844 40.984375 29.082031 40.789062 29.082031 " fill-opacity="1" fill-rule="nonzero"/><path fill="#ffffff" d="M 54.484375 24.726562 C 54.40625 24.726562 54.328125 24.710938 54.253906 24.671875 L 46.125 20.425781 C 45.878906 20.300781 45.785156 19.996094 45.914062 19.753906 C 46.039062 19.507812 46.34375 19.414062 46.585938 19.539062 L 54.71875 23.785156 C 54.960938 23.910156 55.058594 24.214844 54.929688 24.457031 C 54.839844 24.628906 54.664062 24.726562 54.484375 24.726562 " fill-opacity="1" fill-rule="nonzero"/><path fill="#ffffff" d="M 53.492188 33.558594 C 53.449219 33.558594 53.402344 33.554688 53.359375 33.542969 C 53.09375 33.46875 52.9375 33.191406 53.011719 32.925781 L 54.890625 26.132812 C 54.960938 25.863281 55.238281 25.707031 55.503906 25.78125 C 55.769531 25.855469 55.925781 26.132812 55.851562 26.398438 L 53.972656 33.191406 C 53.914062 33.414062 53.710938 33.558594 53.492188 33.558594 " fill-opacity="1" fill-rule="nonzero"/><path fill="#ffffff" d="M 50.917969 34.859375 C 50.859375 34.859375 50.800781 34.851562 50.742188 34.828125 L 41.582031 31.328125 C 41.324219 31.230469 41.195312 30.941406 41.296875 30.683594 C 41.394531 30.425781 41.683594 30.296875 41.941406 30.394531 L 51.097656 33.894531 C 51.355469 33.992188 51.484375 34.28125 51.386719 34.539062 C 51.3125 34.738281 51.121094 34.859375 50.917969 34.859375 " fill-opacity="1" fill-rule="nonzero"/><path fill="#ffffff" d="M 65.554688 27.421875 C 65.519531 27.421875 65.488281 27.417969 65.453125 27.410156 L 57.050781 25.667969 C 56.78125 25.613281 56.605469 25.347656 56.660156 25.078125 C 56.71875 24.804688 56.984375 24.632812 57.253906 24.6875 L 65.65625 26.433594 C 65.925781 26.488281 66.101562 26.753906 66.042969 27.023438 C 65.996094 27.261719 65.785156 27.421875 65.554688 27.421875 " fill-opacity="1" fill-rule="nonzero"/><path fill="#ffffff" d="M 56.308594 24.070312 C 56.242188 24.070312 56.175781 24.058594 56.113281 24.03125 C 55.859375 23.925781 55.738281 23.632812 55.847656 23.378906 L 58.640625 16.757812 C 58.746094 16.503906 59.039062 16.382812 59.292969 16.492188 C 59.550781 16.597656 59.667969 16.890625 59.5625 17.148438 L 56.769531 23.765625 C 56.6875 23.957031 56.503906 24.070312 56.308594 24.070312 " fill-opacity="1" fill-rule="nonzero"/><path fill="#ffffff" d="M 29.460938 33.132812 C 29.230469 33.132812 29.027344 32.976562 28.972656 32.746094 C 28.910156 32.476562 29.082031 32.207031 29.351562 32.148438 L 38.242188 30.132812 C 38.511719 30.070312 38.777344 30.242188 38.839844 30.507812 C 38.902344 30.777344 38.734375 31.046875 38.464844 31.109375 L 29.570312 33.121094 C 29.535156 33.128906 29.496094 33.132812 29.460938 33.132812 " fill-opacity="1" fill-rule="nonzero"/><path fill="#ffffff" d="M 39.496094 40.921875 C 39.488281 40.921875 39.476562 40.921875 39.46875 40.921875 C 39.191406 40.90625 38.980469 40.667969 38.996094 40.394531 L 39.488281 31.980469 C 39.507812 31.703125 39.742188 31.492188 40.019531 31.507812 C 40.292969 31.523438 40.503906 31.761719 40.488281 32.039062 L 39.996094 40.453125 C 39.980469 40.71875 39.761719 40.921875 39.496094 40.921875 " fill-opacity="1" fill-rule="nonzero"/><path fill="#ffffff" d="M 46.160156 54.304688 C 45.988281 54.304688 45.824219 54.21875 45.730469 54.058594 L 39.859375 44 C 39.722656 43.761719 39.800781 43.453125 40.039062 43.316406 C 40.277344 43.175781 40.582031 43.257812 40.722656 43.496094 L 46.59375 53.554688 C 46.730469 53.792969 46.652344 54.097656 46.414062 54.238281 C 46.332031 54.285156 46.246094 54.304688 46.160156 54.304688 " fill-opacity="1" fill-rule="nonzero"/><path fill="#ffffff" d="M 47.589844 54.140625 C 47.539062 54.140625 47.492188 54.132812 47.441406 54.117188 C 47.175781 54.035156 47.03125 53.757812 47.113281 53.492188 L 49.007812 47.386719 C 49.089844 47.121094 49.371094 46.972656 49.632812 47.054688 C 49.894531 47.136719 50.042969 47.417969 49.960938 47.679688 L 48.066406 53.789062 C 48 54.003906 47.804688 54.140625 47.589844 54.140625 " fill-opacity="1" fill-rule="nonzero"/><path fill="#ffffff" d="M 50.285156 45.292969 C 50.242188 45.292969 50.195312 45.285156 50.152344 45.273438 C 49.886719 45.199219 49.730469 44.925781 49.800781 44.660156 L 51.875 37.058594 C 51.949219 36.792969 52.222656 36.636719 52.488281 36.710938 C 52.753906 36.78125 52.914062 37.054688 52.839844 37.324219 L 50.765625 44.921875 C 50.707031 45.144531 50.503906 45.292969 50.285156 45.292969 " fill-opacity="1" fill-rule="nonzero"/><path fill="#ffffff" d="M 60.949219 40.789062 C 60.855469 40.789062 60.761719 40.765625 60.679688 40.710938 L 54.453125 36.703125 C 54.21875 36.554688 54.152344 36.246094 54.300781 36.011719 C 54.453125 35.78125 54.761719 35.714844 54.992188 35.863281 L 61.21875 39.867188 C 61.449219 40.019531 61.519531 40.328125 61.367188 40.558594 C 61.273438 40.707031 61.113281 40.789062 60.949219 40.789062 " fill-opacity="1" fill-rule="nonzero"/><path fill="#ffffff" d="M 32.117188 40.101562 C 32.003906 40.101562 31.894531 40.0625 31.800781 39.988281 C 31.585938 39.8125 31.554688 39.496094 31.730469 39.285156 L 38.429688 31.15625 C 38.605469 30.941406 38.921875 30.910156 39.136719 31.085938 C 39.347656 31.261719 39.378906 31.578125 39.203125 31.789062 L 32.503906 39.917969 C 32.402344 40.039062 32.261719 40.101562 32.117188 40.101562 " fill-opacity="1" fill-rule="nonzero"/><g clip-path="url(#185cdd6860)"><path fill="#ffffff" d="M 66.953125 26.285156 C 66.441406 26.285156 66.023438 26.699219 66.023438 27.210938 C 66.023438 27.722656 66.441406 28.140625 66.953125 28.140625 C 67.464844 28.140625 67.882812 27.722656 67.882812 27.210938 C 67.882812 26.699219 67.464844 26.285156 66.953125 26.285156 Z M 66.953125 29.140625 C 65.890625 29.140625 65.023438 28.277344 65.023438 27.210938 C 65.023438 26.148438 65.890625 25.285156 66.953125 25.285156 C 68.015625 25.285156 68.878906 26.148438 68.878906 27.210938 C 68.878906 28.277344 68.015625 29.140625 66.953125 29.140625 " fill-opacity="1" fill-rule="nonzero"/></g><g clip-path="url(#2db4eeba52)"><path fill="#ffffff" d="M 47.058594 54.0625 C 46.351562 54.0625 45.773438 54.636719 45.773438 55.347656 C 45.773438 56.054688 46.351562 56.632812 47.058594 56.632812 C 47.769531 56.632812 48.34375 56.054688 48.34375 55.347656 C 48.34375 54.636719 47.769531 54.0625 47.058594 54.0625 Z M 47.058594 57.632812 C 45.800781 57.632812 44.773438 56.605469 44.773438 55.347656 C 44.773438 54.085938 45.800781 53.0625 47.058594 53.0625 C 48.320312 53.0625 49.34375 54.085938 49.34375 55.347656 C 49.34375 56.605469 48.320312 57.632812 47.058594 57.632812 " fill-opacity="1" fill-rule="nonzero"/></g><path fill="#ffffff" d="M 39.390625 40.917969 C 38.683594 40.917969 38.105469 41.496094 38.105469 42.203125 C 38.105469 42.914062 38.683594 43.488281 39.390625 43.488281 C 40.101562 43.488281 40.675781 42.914062 40.675781 42.203125 C 40.675781 41.496094 40.101562 40.917969 39.390625 40.917969 Z M 39.390625 44.488281 C 38.132812 44.488281 37.105469 43.464844 37.105469 42.203125 C 37.105469 40.945312 38.132812 39.917969 39.390625 39.917969 C 40.652344 39.917969 41.675781 40.945312 41.675781 42.203125 C 41.675781 43.464844 40.652344 44.488281 39.390625 44.488281 " fill-opacity="1" fill-rule="nonzero"/><path fill="#ffffff" d="M 28.066406 32.019531 C 27.554688 32.019531 27.140625 32.4375 27.140625 32.949219 C 27.140625 33.460938 27.554688 33.878906 28.066406 33.878906 C 28.578125 33.878906 28.996094 33.460938 28.996094 32.949219 C 28.996094 32.4375 28.578125 32.019531 28.066406 32.019531 Z M 28.066406 34.878906 C 27.003906 34.878906 26.140625 34.011719 26.140625 32.949219 C 26.140625 31.886719 27.003906 31.019531 28.066406 31.019531 C 29.132812 31.019531 29.996094 31.886719 29.996094 32.949219 C 29.996094 34.011719 29.132812 34.878906 28.066406 34.878906 " fill-opacity="1" fill-rule="nonzero"/><path fill="#ffffff" d="M 52.921875 33.480469 C 52.015625 33.480469 51.277344 34.21875 51.277344 35.125 C 51.277344 36.03125 52.015625 36.765625 52.921875 36.765625 C 53.828125 36.765625 54.5625 36.03125 54.5625 35.125 C 54.5625 34.21875 53.828125 33.480469 52.921875 33.480469 Z M 52.921875 37.765625 C 51.464844 37.765625 50.277344 36.582031 50.277344 35.125 C 50.277344 33.667969 51.464844 32.484375 52.921875 32.484375 C 54.378906 32.484375 55.5625 33.667969 55.5625 35.125 C 55.5625 36.582031 54.378906 37.765625 52.921875 37.765625 " fill-opacity="1" fill-rule="nonzero"/><path fill="#ffffff" d="M 30.753906 39.613281 C 29.851562 39.613281 29.113281 40.347656 29.113281 41.253906 C 29.113281 42.160156 29.851562 42.898438 30.753906 42.898438 C 31.660156 42.898438 32.398438 42.160156 32.398438 41.253906 C 32.398438 40.347656 31.660156 39.613281 30.753906 39.613281 Z M 30.753906 43.898438 C 29.300781 43.898438 28.113281 42.710938 28.113281 41.253906 C 28.113281 39.796875 29.300781 38.613281 30.753906 38.613281 C 32.210938 38.613281 33.398438 39.796875 33.398438 41.253906 C 33.398438 42.710938 32.210938 43.898438 30.753906 43.898438 " fill-opacity="1" fill-rule="nonzero"/><path fill="#ffffff" d="M 46.503906 19.214844 C 46.28125 19.214844 46.074219 19.0625 46.019531 18.839844 C 45.949219 18.570312 46.109375 18.296875 46.378906 18.230469 L 57.941406 15.265625 C 58.207031 15.199219 58.480469 15.359375 58.546875 15.625 C 58.617188 15.894531 58.457031 16.167969 58.1875 16.234375 L 46.625 19.199219 C 46.585938 19.210938 46.542969 19.214844 46.503906 19.214844 " fill-opacity="1" fill-rule="nonzero"/><path fill="#ffffff" d="M 61.773438 40.101562 C 61.574219 40.101562 61.390625 39.984375 61.308594 39.792969 L 55.832031 26.398438 C 55.726562 26.144531 55.847656 25.851562 56.105469 25.746094 C 56.359375 25.644531 56.652344 25.765625 56.753906 26.019531 L 62.234375 39.414062 C 62.339844 39.667969 62.21875 39.960938 61.960938 40.066406 C 61.898438 40.089844 61.835938 40.101562 61.773438 40.101562 " fill-opacity="1" fill-rule="nonzero"/><path fill="#ffffff" d="M 41.78125 30.148438 C 41.574219 30.148438 41.378906 30.019531 41.308594 29.8125 C 41.222656 29.550781 41.359375 29.265625 41.621094 29.175781 L 54.238281 24.875 C 54.5 24.785156 54.785156 24.925781 54.871094 25.1875 C 54.960938 25.449219 54.824219 25.734375 54.5625 25.820312 L 41.945312 30.125 C 41.890625 30.140625 41.835938 30.148438 41.78125 30.148438 " fill-opacity="1" fill-rule="nonzero"/><path fill="#ffffff" d="M 38.996094 29.320312 C 38.847656 29.320312 38.699219 29.253906 38.601562 29.125 L 33.246094 22.253906 C 33.074219 22.039062 33.113281 21.722656 33.332031 21.554688 C 33.550781 21.382812 33.863281 21.421875 34.03125 21.640625 L 39.390625 28.511719 C 39.558594 28.730469 39.523438 29.042969 39.304688 29.210938 C 39.214844 29.285156 39.105469 29.320312 38.996094 29.320312 " fill-opacity="1" fill-rule="nonzero"/><path fill="#ffffff" d="M 34.066406 19.515625 C 33.910156 19.515625 33.757812 19.445312 33.660156 19.304688 C 33.5 19.082031 33.550781 18.769531 33.777344 18.609375 L 46.949219 9.238281 C 47.171875 9.078125 47.484375 9.128906 47.644531 9.355469 C 47.804688 9.578125 47.753906 9.890625 47.527344 10.050781 L 34.355469 19.421875 C 34.269531 19.484375 34.167969 19.515625 34.066406 19.515625 " fill-opacity="1" fill-rule="nonzero"/><path fill="#ffffff" d="M 49.160156 45.453125 C 48.992188 45.453125 48.828125 45.367188 48.734375 45.214844 L 40.605469 32.007812 C 40.460938 31.773438 40.53125 31.464844 40.765625 31.320312 C 41.003906 31.175781 41.308594 31.25 41.453125 31.484375 L 49.585938 44.691406 C 49.730469 44.925781 49.65625 45.234375 49.421875 45.378906 C 49.339844 45.429688 49.25 45.453125 49.160156 45.453125 " fill-opacity="1" fill-rule="nonzero"/><path fill="#ffffff" d="M 32.320312 18.617188 C 31.417969 18.617188 30.679688 19.351562 30.679688 20.257812 C 30.679688 21.164062 31.417969 21.902344 32.320312 21.902344 C 33.226562 21.902344 33.964844 21.164062 33.964844 20.257812 C 33.964844 19.351562 33.226562 18.617188 32.320312 18.617188 Z M 32.320312 22.902344 C 30.863281 22.902344 29.679688 21.714844 29.679688 20.257812 C 29.679688 18.800781 30.863281 17.617188 32.320312 17.617188 C 33.777344 17.617188 34.964844 18.800781 34.964844 20.257812 C 34.964844 21.714844 33.777344 22.902344 32.320312 22.902344 " fill-opacity="1" fill-rule="nonzero"/><g clip-path="url(#f7486ca2aa)"><path fill="#ffffff" d="M 48.402344 7.886719 C 47.890625 7.886719 47.472656 8.304688 47.472656 8.816406 C 47.472656 9.328125 47.890625 9.746094 48.402344 9.746094 C 48.914062 9.746094 49.328125 9.328125 49.328125 8.816406 C 49.328125 8.304688 48.914062 7.886719 48.402344 7.886719 Z M 48.402344 10.742188 C 47.339844 10.742188 46.472656 9.878906 46.472656 8.816406 C 46.472656 7.753906 47.339844 6.886719 48.402344 6.886719 C 49.464844 6.886719 50.328125 7.753906 50.328125 8.816406 C 50.328125 9.878906 49.464844 10.742188 48.402344 10.742188 " fill-opacity="1" fill-rule="nonzero"/></g><path fill="#ffffff" d="M 59.792969 14.023438 C 59.085938 14.023438 58.507812 14.597656 58.507812 15.308594 C 58.507812 16.015625 59.085938 16.59375 59.792969 16.59375 C 60.503906 16.59375 61.078125 16.015625 61.078125 15.308594 C 61.078125 14.597656 60.503906 14.023438 59.792969 14.023438 Z M 59.792969 17.59375 C 58.535156 17.59375 57.507812 16.566406 57.507812 15.308594 C 57.507812 14.046875 58.535156 13.023438 59.792969 13.023438 C 61.054688 13.023438 62.078125 14.046875 62.078125 15.308594 C 62.078125 16.566406 61.054688 17.59375 59.792969 17.59375 " fill-opacity="1" fill-rule="nonzero"/><path fill="#ffffff" d="M 62.449219 39.96875 C 61.738281 39.96875 61.164062 40.546875 61.164062 41.253906 C 61.164062 41.964844 61.738281 42.539062 62.449219 42.539062 C 63.15625 42.539062 63.734375 41.964844 63.734375 41.253906 C 63.734375 40.546875 63.15625 39.96875 62.449219 39.96875 Z M 62.449219 43.539062 C 61.1875 43.539062 60.164062 42.515625 60.164062 41.253906 C 60.164062 39.996094 61.1875 38.96875 62.449219 38.96875 C 63.707031 38.96875 64.734375 39.996094 64.734375 41.253906 C 64.734375 42.515625 63.707031 43.539062 62.449219 43.539062 " fill-opacity="1" fill-rule="nonzero"/><path fill="#ffffff" d="M 49.90625 45.242188 C 49.394531 45.242188 48.980469 45.65625 48.980469 46.167969 C 48.980469 46.679688 49.394531 47.097656 49.90625 47.097656 C 50.417969 47.097656 50.835938 46.679688 50.835938 46.167969 C 50.835938 45.65625 50.417969 45.242188 49.90625 45.242188 Z M 49.90625 48.097656 C 48.84375 48.097656 47.980469 47.230469 47.980469 46.167969 C 47.980469 45.105469 48.84375 44.242188 49.90625 44.242188 C 50.96875 44.242188 51.835938 45.105469 51.835938 46.167969 C 51.835938 47.230469 50.96875 48.097656 49.90625 48.097656 " fill-opacity="1" fill-rule="nonzero"/><path fill="#ffffff" d="M 44.773438 17.871094 C 44.0625 17.871094 43.488281 18.449219 43.488281 19.15625 C 43.488281 19.867188 44.0625 20.441406 44.773438 20.441406 C 45.480469 20.441406 46.058594 19.867188 46.058594 19.15625 C 46.058594 18.449219 45.480469 17.871094 44.773438 17.871094 Z M 44.773438 21.441406 C 43.511719 21.441406 42.488281 20.417969 42.488281 19.15625 C 42.488281 17.898438 43.511719 16.871094 44.773438 16.871094 C 46.03125 16.871094 47.058594 17.898438 47.058594 19.15625 C 47.058594 20.417969 46.03125 21.441406 44.773438 21.441406 " fill-opacity="1" fill-rule="nonzero"/><path fill="#ffffff" d="M 55.753906 23.960938 C 55.242188 23.960938 54.824219 24.375 54.824219 24.886719 C 54.824219 25.398438 55.242188 25.816406 55.753906 25.816406 C 56.261719 25.816406 56.679688 25.398438 56.679688 24.886719 C 56.679688 24.375 56.261719 23.960938 55.753906 23.960938 Z M 55.753906 26.816406 C 54.691406 26.816406 53.824219 25.949219 53.824219 24.886719 C 53.824219 23.824219 54.691406 22.960938 55.753906 22.960938 C 56.816406 22.960938 57.679688 23.824219 57.679688 24.886719 C 57.679688 25.949219 56.816406 26.816406 55.753906 26.816406 " fill-opacity="1" fill-rule="nonzero"/><path fill="#ffffff" d="M 40.09375 28.941406 C 39.386719 28.941406 38.808594 29.515625 38.808594 30.226562 C 38.808594 30.933594 39.386719 31.511719 40.09375 31.511719 C 40.800781 31.511719 41.378906 30.933594 41.378906 30.226562 C 41.378906 29.515625 40.800781 28.941406 40.09375 28.941406 Z M 40.09375 32.511719 C 38.832031 32.511719 37.808594 31.484375 37.808594 30.226562 C 37.808594 28.964844 38.832031 27.941406 40.09375 27.941406 C 41.351562 27.941406 42.378906 28.964844 42.378906 30.226562 C 42.378906 31.484375 41.351562 32.511719 40.09375 32.511719 " fill-opacity="1" fill-rule="nonzero"/><g clip-path="url(#5e1b72d72f)"><path fill="#ffffff" d="M 18.191406 27.929688 C 17.484375 27.929688 16.90625 28.503906 16.90625 29.214844 C 16.90625 29.921875 17.484375 30.5 18.191406 30.5 C 18.898438 30.5 19.476562 29.921875 19.476562 29.214844 C 19.476562 28.503906 18.898438 27.929688 18.191406 27.929688 Z M 18.191406 31.5 C 16.929688 31.5 15.90625 30.472656 15.90625 29.214844 C 15.90625 27.953125 16.929688 26.929688 18.191406 26.929688 C 19.453125 26.929688 20.476562 27.953125 20.476562 29.214844 C 20.476562 30.472656 19.453125 31.5 18.191406 31.5 " fill-opacity="1" fill-rule="nonzero"/></g><g clip-path="url(#fff52000a6)"><path fill="#ffffff" d="M 30.753906 7.992188 C 30.046875 7.992188 29.46875 8.566406 29.46875 9.277344 C 29.46875 9.984375 30.046875 10.5625 30.753906 10.5625 C 31.464844 10.5625 32.039062 9.984375 32.039062 9.277344 C 32.039062 8.566406 31.464844 7.992188 30.753906 7.992188 Z M 30.753906 11.5625 C 29.496094 11.5625 28.472656 10.535156 28.472656 9.277344 C 28.472656 8.015625 29.496094 6.992188 30.753906 6.992188 C 32.015625 6.992188 33.039062 8.015625 33.039062 9.277344 C 33.039062 10.535156 32.015625 11.5625 30.753906 11.5625 " fill-opacity="1" fill-rule="nonzero"/></g><g clip-path="url(#10688b5fef)"><path fill="#ffffff" d="M 71.851562 60.644531 L 68.929688 60.644531 L 68.929688 57.605469 L 70.898438 57.605469 C 74.476562 57.605469 75.371094 55.816406 75.371094 51.585938 C 75.371094 47.589844 75.015625 44.074219 75.015625 39.664062 C 75.015625 35.371094 76.089844 33.226562 78.953125 32.449219 L 78.953125 32.210938 C 76.089844 31.4375 75.015625 29.289062 75.015625 25.058594 C 75.015625 20.589844 75.371094 17.128906 75.371094 13.136719 C 75.371094 8.84375 74.476562 7.117188 70.898438 7.117188 L 68.929688 7.117188 L 68.929688 4.015625 L 71.851562 4.015625 C 77.042969 4.015625 79.550781 6.042969 79.550781 12.839844 C 79.550781 17.609375 78.953125 21.066406 78.953125 25.59375 C 78.953125 28.097656 80.144531 30.660156 84.5625 30.660156 L 84.5625 34 C 80.144531 34.058594 78.953125 36.621094 78.953125 39.125 C 78.953125 43.539062 79.550781 47.054688 79.550781 51.882812 C 79.550781 58.679688 77.042969 60.644531 71.851562 60.644531 Z M 71.851562 60.644531 " fill-opacity="1" fill-rule="nonzero"/></g><g clip-path="url(#83a58d0998)"><path fill="#ffffff" d="M 12.933594 3.871094 L 15.855469 3.871094 L 15.855469 6.910156 L 13.886719 6.910156 C 10.308594 6.910156 9.414062 8.699219 9.414062 12.933594 C 9.414062 16.925781 9.769531 20.441406 9.769531 24.855469 C 9.769531 29.144531 8.695312 31.292969 5.832031 32.066406 L 5.832031 32.304688 C 8.695312 33.078125 9.769531 35.226562 9.769531 39.457031 C 9.769531 43.929688 9.414062 47.386719 9.414062 51.378906 C 9.414062 55.671875 10.308594 57.402344 13.886719 57.402344 L 15.855469 57.402344 L 15.855469 60.5 L 12.933594 60.5 C 7.742188 60.5 5.234375 58.472656 5.234375 51.679688 C 5.234375 46.910156 5.832031 43.453125 5.832031 38.921875 C 5.832031 36.417969 4.640625 33.855469 0.222656 33.855469 L 0.222656 30.515625 C 4.640625 30.457031 5.832031 27.894531 5.832031 25.390625 C 5.832031 20.980469 5.234375 17.460938 5.234375 12.632812 C 5.234375 5.839844 7.742188 3.871094 12.933594 3.871094 Z M 12.933594 3.871094 " fill-opacity="1" fill-rule="nonzero"/></g><g fill="#ffffff" fill-opacity="1"><g transform="translate(18.301494, 77.672829)"><g><path d="M 0.484375 -3.984375 C 0.484375 -4.753906 0.660156 -5.445312 1.015625 -6.0625 C 1.367188 -6.6875 1.847656 -7.171875 2.453125 -7.515625 C 3.054688 -7.867188 3.722656 -8.046875 4.453125 -8.046875 C 5.328125 -8.046875 6.085938 -7.835938 6.734375 -7.421875 C 7.378906 -7.003906 7.847656 -6.410156 8.140625 -5.640625 L 6.90625 -5.640625 C 6.675781 -6.117188 6.351562 -6.488281 5.9375 -6.75 C 5.53125 -7.007812 5.035156 -7.140625 4.453125 -7.140625 C 3.898438 -7.140625 3.398438 -7.007812 2.953125 -6.75 C 2.515625 -6.488281 2.171875 -6.117188 1.921875 -5.640625 C 1.671875 -5.171875 1.546875 -4.617188 1.546875 -3.984375 C 1.546875 -3.347656 1.671875 -2.789062 1.921875 -2.3125 C 2.171875 -1.84375 2.515625 -1.476562 2.953125 -1.21875 C 3.398438 -0.957031 3.898438 -0.828125 4.453125 -0.828125 C 5.035156 -0.828125 5.53125 -0.953125 5.9375 -1.203125 C 6.351562 -1.460938 6.675781 -1.832031 6.90625 -2.3125 L 8.140625 -2.3125 C 7.847656 -1.550781 7.378906 -0.960938 6.734375 -0.546875 C 6.085938 -0.140625 5.328125 0.0625 4.453125 0.0625 C 3.722656 0.0625 3.054688 -0.109375 2.453125 -0.453125 C 1.847656 -0.796875 1.367188 -1.273438 1.015625 -1.890625 C 0.660156 -2.503906 0.484375 -3.203125 0.484375 -3.984375 Z M 0.484375 -3.984375 "/></g></g></g><g fill="#ffffff" fill-opacity="1"><g transform="translate(27.106363, 77.672829)"><g><path d="M 3.609375 0.109375 C 3.015625 0.109375 2.476562 -0.0234375 2 -0.296875 C 1.53125 -0.566406 1.160156 -0.945312 0.890625 -1.4375 C 0.617188 -1.925781 0.484375 -2.492188 0.484375 -3.140625 C 0.484375 -3.773438 0.625 -4.335938 0.90625 -4.828125 C 1.1875 -5.316406 1.566406 -5.691406 2.046875 -5.953125 C 2.523438 -6.222656 3.0625 -6.359375 3.65625 -6.359375 C 4.25 -6.359375 4.785156 -6.222656 5.265625 -5.953125 C 5.742188 -5.691406 6.117188 -5.316406 6.390625 -4.828125 C 6.671875 -4.347656 6.8125 -3.785156 6.8125 -3.140625 C 6.8125 -2.492188 6.664062 -1.925781 6.375 -1.4375 C 6.09375 -0.945312 5.707031 -0.566406 5.21875 -0.296875 C 4.738281 -0.0234375 4.203125 0.109375 3.609375 0.109375 Z M 3.609375 -0.8125 C 3.972656 -0.8125 4.316406 -0.894531 4.640625 -1.0625 C 4.972656 -1.238281 5.238281 -1.503906 5.4375 -1.859375 C 5.644531 -2.210938 5.75 -2.640625 5.75 -3.140625 C 5.75 -3.640625 5.648438 -4.0625 5.453125 -4.40625 C 5.253906 -4.757812 4.992188 -5.019531 4.671875 -5.1875 C 4.359375 -5.363281 4.015625 -5.453125 3.640625 -5.453125 C 3.253906 -5.453125 2.90625 -5.363281 2.59375 -5.1875 C 2.28125 -5.019531 2.023438 -4.757812 1.828125 -4.40625 C 1.640625 -4.0625 1.546875 -3.640625 1.546875 -3.140625 C 1.546875 -2.628906 1.640625 -2.195312 1.828125 -1.84375 C 2.015625 -1.5 2.265625 -1.238281 2.578125 -1.0625 C 2.890625 -0.894531 3.234375 -0.8125 3.609375 -0.8125 Z M 3.609375 -0.8125 "/></g></g></g><g fill="#ffffff" fill-opacity="1"><g transform="translate(34.405733, 77.672829)"><g><path d="M 8.390625 -6.359375 C 8.878906 -6.359375 9.3125 -6.257812 9.6875 -6.0625 C 10.070312 -5.863281 10.375 -5.5625 10.59375 -5.15625 C 10.8125 -4.75 10.921875 -4.257812 10.921875 -3.6875 L 10.921875 0 L 9.90625 0 L 9.90625 -3.53125 C 9.90625 -4.15625 9.75 -4.632812 9.4375 -4.96875 C 9.132812 -5.300781 8.71875 -5.46875 8.1875 -5.46875 C 7.644531 -5.46875 7.210938 -5.289062 6.890625 -4.9375 C 6.578125 -4.59375 6.421875 -4.09375 6.421875 -3.4375 L 6.421875 0 L 5.390625 0 L 5.390625 -3.53125 C 5.390625 -4.15625 5.234375 -4.632812 4.921875 -4.96875 C 4.617188 -5.300781 4.207031 -5.46875 3.6875 -5.46875 C 3.144531 -5.46875 2.710938 -5.289062 2.390625 -4.9375 C 2.078125 -4.59375 1.921875 -4.09375 1.921875 -3.4375 L 1.921875 0 L 0.875 0 L 0.875 -6.25 L 1.921875 -6.25 L 1.921875 -5.34375 C 2.117188 -5.675781 2.390625 -5.925781 2.734375 -6.09375 C 3.085938 -6.269531 3.472656 -6.359375 3.890625 -6.359375 C 4.410156 -6.359375 4.875 -6.238281 5.28125 -6 C 5.6875 -5.769531 5.988281 -5.425781 6.1875 -4.96875 C 6.351562 -5.414062 6.640625 -5.757812 7.046875 -6 C 7.453125 -6.238281 7.898438 -6.359375 8.390625 -6.359375 Z M 8.390625 -6.359375 "/></g></g></g><g fill="#ffffff" fill-opacity="1"><g transform="translate(46.153163, 77.672829)"><g><path d="M 1.921875 -5.09375 C 2.117188 -5.457031 2.421875 -5.757812 2.828125 -6 C 3.234375 -6.238281 3.707031 -6.359375 4.25 -6.359375 C 4.8125 -6.359375 5.316406 -6.222656 5.765625 -5.953125 C 6.210938 -5.691406 6.566406 -5.316406 6.828125 -4.828125 C 7.085938 -4.347656 7.21875 -3.785156 7.21875 -3.140625 C 7.21875 -2.515625 7.085938 -1.953125 6.828125 -1.453125 C 6.566406 -0.960938 6.210938 -0.578125 5.765625 -0.296875 C 5.316406 -0.0234375 4.8125 0.109375 4.25 0.109375 C 3.71875 0.109375 3.25 -0.0078125 2.84375 -0.25 C 2.4375 -0.488281 2.128906 -0.789062 1.921875 -1.15625 L 1.921875 2.96875 L 0.875 2.96875 L 0.875 -6.25 L 1.921875 -6.25 Z M 6.15625 -3.140625 C 6.15625 -3.617188 6.0625 -4.03125 5.875 -4.375 C 5.6875 -4.726562 5.429688 -4.992188 5.109375 -5.171875 C 4.785156 -5.359375 4.425781 -5.453125 4.03125 -5.453125 C 3.65625 -5.453125 3.304688 -5.359375 2.984375 -5.171875 C 2.660156 -4.984375 2.398438 -4.710938 2.203125 -4.359375 C 2.015625 -4.003906 1.921875 -3.597656 1.921875 -3.140625 C 1.921875 -2.660156 2.015625 -2.242188 2.203125 -1.890625 C 2.398438 -1.546875 2.660156 -1.28125 2.984375 -1.09375 C 3.304688 -0.90625 3.65625 -0.8125 4.03125 -0.8125 C 4.425781 -0.8125 4.785156 -0.90625 5.109375 -1.09375 C 5.429688 -1.28125 5.6875 -1.546875 5.875 -1.890625 C 6.0625 -2.242188 6.15625 -2.660156 6.15625 -3.140625 Z M 6.15625 -3.140625 "/></g></g></g><g fill="#ffffff" fill-opacity="1"><g transform="translate(53.863127, 77.672829)"><g><path d="M 6.421875 -6.25 L 6.421875 0 L 5.390625 0 L 5.390625 -0.921875 C 5.191406 -0.597656 4.914062 -0.347656 4.5625 -0.171875 C 4.207031 0.00390625 3.816406 0.09375 3.390625 0.09375 C 2.898438 0.09375 2.460938 -0.00390625 2.078125 -0.203125 C 1.691406 -0.410156 1.382812 -0.710938 1.15625 -1.109375 C 0.9375 -1.515625 0.828125 -2.007812 0.828125 -2.59375 L 0.828125 -6.25 L 1.84375 -6.25 L 1.84375 -2.71875 C 1.84375 -2.101562 2 -1.628906 2.3125 -1.296875 C 2.625 -0.972656 3.050781 -0.8125 3.59375 -0.8125 C 4.144531 -0.8125 4.582031 -0.984375 4.90625 -1.328125 C 5.226562 -1.671875 5.390625 -2.164062 5.390625 -2.8125 L 5.390625 -6.25 Z M 6.421875 -6.25 "/></g></g></g><g fill="#ffffff" fill-opacity="1"><g transform="translate(61.162497, 77.672829)"><g><path d="M 2.140625 -5.390625 L 2.140625 -1.703125 C 2.140625 -1.398438 2.203125 -1.1875 2.328125 -1.0625 C 2.460938 -0.9375 2.691406 -0.875 3.015625 -0.875 L 3.78125 -0.875 L 3.78125 0 L 2.84375 0 C 2.257812 0 1.820312 -0.128906 1.53125 -0.390625 C 1.25 -0.660156 1.109375 -1.097656 1.109375 -1.703125 L 1.109375 -5.390625 L 0.296875 -5.390625 L 0.296875 -6.25 L 1.109375 -6.25 L 1.109375 -7.828125 L 2.140625 -7.828125 L 2.140625 -6.25 L 3.78125 -6.25 L 3.78125 -5.390625 Z M 2.140625 -5.390625 "/></g></g></g><g fill="#ffffff" fill-opacity="1"><g transform="translate(65.314011, 77.672829)"><g><path d="M 6.578125 -3.359375 C 6.578125 -3.160156 6.566406 -2.953125 6.546875 -2.734375 L 1.546875 -2.734375 C 1.585938 -2.117188 1.800781 -1.640625 2.1875 -1.296875 C 2.570312 -0.953125 3.035156 -0.78125 3.578125 -0.78125 C 4.023438 -0.78125 4.398438 -0.882812 4.703125 -1.09375 C 5.003906 -1.300781 5.21875 -1.578125 5.34375 -1.921875 L 6.453125 -1.921875 C 6.285156 -1.328125 5.953125 -0.835938 5.453125 -0.453125 C 4.953125 -0.078125 4.328125 0.109375 3.578125 0.109375 C 2.984375 0.109375 2.453125 -0.0234375 1.984375 -0.296875 C 1.515625 -0.566406 1.144531 -0.945312 0.875 -1.4375 C 0.613281 -1.925781 0.484375 -2.492188 0.484375 -3.140625 C 0.484375 -3.785156 0.613281 -4.347656 0.875 -4.828125 C 1.132812 -5.316406 1.5 -5.691406 1.96875 -5.953125 C 2.4375 -6.222656 2.972656 -6.359375 3.578125 -6.359375 C 4.171875 -6.359375 4.695312 -6.226562 5.15625 -5.96875 C 5.613281 -5.707031 5.960938 -5.347656 6.203125 -4.890625 C 6.453125 -4.441406 6.578125 -3.929688 6.578125 -3.359375 Z M 5.515625 -3.578125 C 5.515625 -3.972656 5.425781 -4.3125 5.25 -4.59375 C 5.070312 -4.882812 4.832031 -5.101562 4.53125 -5.25 C 4.226562 -5.394531 3.894531 -5.46875 3.53125 -5.46875 C 3.007812 -5.46875 2.5625 -5.300781 2.1875 -4.96875 C 1.820312 -4.632812 1.613281 -4.171875 1.5625 -3.578125 Z M 5.515625 -3.578125 "/></g></g></g><g fill="#ffffff" fill-opacity="1"><g transform="translate(72.385272, 77.672829)"><g><path d="M 1.921875 -5.234375 C 2.097656 -5.585938 2.351562 -5.863281 2.6875 -6.0625 C 3.03125 -6.257812 3.445312 -6.359375 3.9375 -6.359375 L 3.9375 -5.296875 L 3.65625 -5.296875 C 2.5 -5.296875 1.921875 -4.664062 1.921875 -3.40625 L 1.921875 0 L 0.875 0 L 0.875 -6.25 L 1.921875 -6.25 Z M 1.921875 -5.234375 "/></g></g></g><g fill="#ffffff" fill-opacity="1"><g transform="translate(76.639434, 77.672829)"><g/></g></g><g fill="#ffffff" fill-opacity="1"><g transform="translate(79.684643, 77.672829)"><g><path d="M 1.921875 -7.109375 L 1.921875 -4.453125 L 4.8125 -4.453125 L 4.8125 -3.59375 L 1.921875 -3.59375 L 1.921875 -0.859375 L 5.15625 -0.859375 L 5.15625 0 L 0.875 0 L 0.875 -7.96875 L 5.15625 -7.96875 L 5.15625 -7.109375 Z M 1.921875 -7.109375 "/></g></g></g><g fill="#ffffff" fill-opacity="1"><g transform="translate(85.535538, 77.672829)"><g><path d="M 3.921875 -6.359375 C 4.679688 -6.359375 5.296875 -6.128906 5.765625 -5.671875 C 6.242188 -5.210938 6.484375 -4.550781 6.484375 -3.6875 L 6.484375 0 L 5.453125 0 L 5.453125 -3.53125 C 5.453125 -4.15625 5.296875 -4.632812 4.984375 -4.96875 C 4.671875 -5.300781 4.242188 -5.46875 3.703125 -5.46875 C 3.160156 -5.46875 2.726562 -5.296875 2.40625 -4.953125 C 2.082031 -4.609375 1.921875 -4.109375 1.921875 -3.453125 L 1.921875 0 L 0.875 0 L 0.875 -6.25 L 1.921875 -6.25 L 1.921875 -5.359375 C 2.117188 -5.679688 2.394531 -5.925781 2.75 -6.09375 C 3.101562 -6.269531 3.492188 -6.359375 3.921875 -6.359375 Z M 3.921875 -6.359375 "/></g></g></g><g fill="#ffffff" fill-opacity="1"><g transform="translate(92.834909, 77.672829)"><g><path d="M 3.453125 -6.359375 C 3.992188 -6.359375 4.46875 -6.238281 4.875 -6 C 5.28125 -5.757812 5.582031 -5.460938 5.78125 -5.109375 L 5.78125 -6.25 L 6.828125 -6.25 L 6.828125 0.140625 C 6.828125 0.710938 6.707031 1.21875 6.46875 1.65625 C 6.226562 2.101562 5.878906 2.453125 5.421875 2.703125 C 4.972656 2.953125 4.445312 3.078125 3.84375 3.078125 C 3.019531 3.078125 2.332031 2.882812 1.78125 2.5 C 1.238281 2.113281 0.921875 1.582031 0.828125 0.90625 L 1.84375 0.90625 C 1.957031 1.289062 2.191406 1.597656 2.546875 1.828125 C 2.910156 2.054688 3.34375 2.171875 3.84375 2.171875 C 4.414062 2.171875 4.878906 1.992188 5.234375 1.640625 C 5.597656 1.285156 5.78125 0.785156 5.78125 0.140625 L 5.78125 -1.171875 C 5.570312 -0.804688 5.265625 -0.5 4.859375 -0.25 C 4.460938 -0.0078125 3.992188 0.109375 3.453125 0.109375 C 2.898438 0.109375 2.394531 -0.0234375 1.9375 -0.296875 C 1.488281 -0.578125 1.132812 -0.960938 0.875 -1.453125 C 0.613281 -1.953125 0.484375 -2.515625 0.484375 -3.140625 C 0.484375 -3.785156 0.613281 -4.347656 0.875 -4.828125 C 1.132812 -5.316406 1.488281 -5.691406 1.9375 -5.953125 C 2.394531 -6.222656 2.898438 -6.359375 3.453125 -6.359375 Z M 5.78125 -3.140625 C 5.78125 -3.609375 5.6875 -4.015625 5.5 -4.359375 C 5.3125 -4.710938 5.054688 -4.984375 4.734375 -5.171875 C 4.410156 -5.359375 4.050781 -5.453125 3.65625 -5.453125 C 3.269531 -5.453125 2.914062 -5.359375 2.59375 -5.171875 C 2.28125 -4.992188 2.023438 -4.726562 1.828125 -4.375 C 1.640625 -4.03125 1.546875 -3.617188 1.546875 -3.140625 C 1.546875 -2.660156 1.640625 -2.242188 1.828125 -1.890625 C 2.023438 -1.546875 2.28125 -1.28125 2.59375 -1.09375 C 2.914062 -0.90625 3.269531 -0.8125 3.65625 -0.8125 C 4.050781 -0.8125 4.410156 -0.90625 4.734375 -1.09375 C 5.054688 -1.28125 5.3125 -1.546875 5.5 -1.890625 C 5.6875 -2.242188 5.78125 -2.660156 5.78125 -3.140625 Z M 5.78125 -3.140625 "/></g></g></g><g fill="#ffffff" fill-opacity="1"><g transform="translate(100.544872, 77.672829)"><g><path d="M 1.421875 -7.265625 C 1.222656 -7.265625 1.050781 -7.332031 0.90625 -7.46875 C 0.769531 -7.601562 0.703125 -7.769531 0.703125 -7.96875 C 0.703125 -8.164062 0.769531 -8.332031 0.90625 -8.46875 C 1.050781 -8.613281 1.222656 -8.6875 1.421875 -8.6875 C 1.609375 -8.6875 1.765625 -8.613281 1.890625 -8.46875 C 2.023438 -8.332031 2.09375 -8.164062 2.09375 -7.96875 C 2.09375 -7.769531 2.023438 -7.601562 1.890625 -7.46875 C 1.765625 -7.332031 1.609375 -7.265625 1.421875 -7.265625 Z M 1.921875 -6.25 L 1.921875 0 L 0.875 0 L 0.875 -6.25 Z M 1.921875 -6.25 "/></g></g></g><g fill="#ffffff" fill-opacity="1"><g transform="translate(103.350573, 77.672829)"><g><path d="M 3.921875 -6.359375 C 4.679688 -6.359375 5.296875 -6.128906 5.765625 -5.671875 C 6.242188 -5.210938 6.484375 -4.550781 6.484375 -3.6875 L 6.484375 0 L 5.453125 0 L 5.453125 -3.53125 C 5.453125 -4.15625 5.296875 -4.632812 4.984375 -4.96875 C 4.671875 -5.300781 4.242188 -5.46875 3.703125 -5.46875 C 3.160156 -5.46875 2.726562 -5.296875 2.40625 -4.953125 C 2.082031 -4.609375 1.921875 -4.109375 1.921875 -3.453125 L 1.921875 0 L 0.875 0 L 0.875 -6.25 L 1.921875 -6.25 L 1.921875 -5.359375 C 2.117188 -5.679688 2.394531 -5.925781 2.75 -6.09375 C 3.101562 -6.269531 3.492188 -6.359375 3.921875 -6.359375 Z M 3.921875 -6.359375 "/></g></g></g><g fill="#ffffff" fill-opacity="1"><g transform="translate(110.649944, 77.672829)"><g><path d="M 6.578125 -3.359375 C 6.578125 -3.160156 6.566406 -2.953125 6.546875 -2.734375 L 1.546875 -2.734375 C 1.585938 -2.117188 1.800781 -1.640625 2.1875 -1.296875 C 2.570312 -0.953125 3.035156 -0.78125 3.578125 -0.78125 C 4.023438 -0.78125 4.398438 -0.882812 4.703125 -1.09375 C 5.003906 -1.300781 5.21875 -1.578125 5.34375 -1.921875 L 6.453125 -1.921875 C 6.285156 -1.328125 5.953125 -0.835938 5.453125 -0.453125 C 4.953125 -0.078125 4.328125 0.109375 3.578125 0.109375 C 2.984375 0.109375 2.453125 -0.0234375 1.984375 -0.296875 C 1.515625 -0.566406 1.144531 -0.945312 0.875 -1.4375 C 0.613281 -1.925781 0.484375 -2.492188 0.484375 -3.140625 C 0.484375 -3.785156 0.613281 -4.347656 0.875 -4.828125 C 1.132812 -5.316406 1.5 -5.691406 1.96875 -5.953125 C 2.4375 -6.222656 2.972656 -6.359375 3.578125 -6.359375 C 4.171875 -6.359375 4.695312 -6.226562 5.15625 -5.96875 C 5.613281 -5.707031 5.960938 -5.347656 6.203125 -4.890625 C 6.453125 -4.441406 6.578125 -3.929688 6.578125 -3.359375 Z M 5.515625 -3.578125 C 5.515625 -3.972656 5.425781 -4.3125 5.25 -4.59375 C 5.070312 -4.882812 4.832031 -5.101562 4.53125 -5.25 C 4.226562 -5.394531 3.894531 -5.46875 3.53125 -5.46875 C 3.007812 -5.46875 2.5625 -5.300781 2.1875 -4.96875 C 1.820312 -4.632812 1.613281 -4.171875 1.5625 -3.578125 Z M 5.515625 -3.578125 "/></g></g></g><g fill="#ffffff" fill-opacity="1"><g transform="translate(117.721205, 77.672829)"><g><path d="M 6.578125 -3.359375 C 6.578125 -3.160156 6.566406 -2.953125 6.546875 -2.734375 L 1.546875 -2.734375 C 1.585938 -2.117188 1.800781 -1.640625 2.1875 -1.296875 C 2.570312 -0.953125 3.035156 -0.78125 3.578125 -0.78125 C 4.023438 -0.78125 4.398438 -0.882812 4.703125 -1.09375 C 5.003906 -1.300781 5.21875 -1.578125 5.34375 -1.921875 L 6.453125 -1.921875 C 6.285156 -1.328125 5.953125 -0.835938 5.453125 -0.453125 C 4.953125 -0.078125 4.328125 0.109375 3.578125 0.109375 C 2.984375 0.109375 2.453125 -0.0234375 1.984375 -0.296875 C 1.515625 -0.566406 1.144531 -0.945312 0.875 -1.4375 C 0.613281 -1.925781 0.484375 -2.492188 0.484375 -3.140625 C 0.484375 -3.785156 0.613281 -4.347656 0.875 -4.828125 C 1.132812 -5.316406 1.5 -5.691406 1.96875 -5.953125 C 2.4375 -6.222656 2.972656 -6.359375 3.578125 -6.359375 C 4.171875 -6.359375 4.695312 -6.226562 5.15625 -5.96875 C 5.613281 -5.707031 5.960938 -5.347656 6.203125 -4.890625 C 6.453125 -4.441406 6.578125 -3.929688 6.578125 -3.359375 Z M 5.515625 -3.578125 C 5.515625 -3.972656 5.425781 -4.3125 5.25 -4.59375 C 5.070312 -4.882812 4.832031 -5.101562 4.53125 -5.25 C 4.226562 -5.394531 3.894531 -5.46875 3.53125 -5.46875 C 3.007812 -5.46875 2.5625 -5.300781 2.1875 -4.96875 C 1.820312 -4.632812 1.613281 -4.171875 1.5625 -3.578125 Z M 5.515625 -3.578125 "/></g></g></g><g fill="#ffffff" fill-opacity="1"><g transform="translate(124.792467, 77.672829)"><g><path d="M 1.921875 -5.234375 C 2.097656 -5.585938 2.351562 -5.863281 2.6875 -6.0625 C 3.03125 -6.257812 3.445312 -6.359375 3.9375 -6.359375 L 3.9375 -5.296875 L 3.65625 -5.296875 C 2.5 -5.296875 1.921875 -4.664062 1.921875 -3.40625 L 1.921875 0 L 0.875 0 L 0.875 -6.25 L 1.921875 -6.25 Z M 1.921875 -5.234375 "/></g></g></g><g fill="#ffffff" fill-opacity="1"><g transform="translate(129.046629, 77.672829)"><g><path d="M 1.421875 -7.265625 C 1.222656 -7.265625 1.050781 -7.332031 0.90625 -7.46875 C 0.769531 -7.601562 0.703125 -7.769531 0.703125 -7.96875 C 0.703125 -8.164062 0.769531 -8.332031 0.90625 -8.46875 C 1.050781 -8.613281 1.222656 -8.6875 1.421875 -8.6875 C 1.609375 -8.6875 1.765625 -8.613281 1.890625 -8.46875 C 2.023438 -8.332031 2.09375 -8.164062 2.09375 -7.96875 C 2.09375 -7.769531 2.023438 -7.601562 1.890625 -7.46875 C 1.765625 -7.332031 1.609375 -7.265625 1.421875 -7.265625 Z M 1.921875 -6.25 L 1.921875 0 L 0.875 0 L 0.875 -6.25 Z M 1.921875 -6.25 "/></g></g></g><g fill="#ffffff" fill-opacity="1"><g transform="translate(131.85233, 77.672829)"><g><path d="M 3.921875 -6.359375 C 4.679688 -6.359375 5.296875 -6.128906 5.765625 -5.671875 C 6.242188 -5.210938 6.484375 -4.550781 6.484375 -3.6875 L 6.484375 0 L 5.453125 0 L 5.453125 -3.53125 C 5.453125 -4.15625 5.296875 -4.632812 4.984375 -4.96875 C 4.671875 -5.300781 4.242188 -5.46875 3.703125 -5.46875 C 3.160156 -5.46875 2.726562 -5.296875 2.40625 -4.953125 C 2.082031 -4.609375 1.921875 -4.109375 1.921875 -3.453125 L 1.921875 0 L 0.875 0 L 0.875 -6.25 L 1.921875 -6.25 L 1.921875 -5.359375 C 2.117188 -5.679688 2.394531 -5.925781 2.75 -6.09375 C 3.101562 -6.269531 3.492188 -6.359375 3.921875 -6.359375 Z M 3.921875 -6.359375 "/></g></g></g><g fill="#ffffff" fill-opacity="1"><g transform="translate(139.1517, 77.672829)"><g><path d="M 3.453125 -6.359375 C 3.992188 -6.359375 4.46875 -6.238281 4.875 -6 C 5.28125 -5.757812 5.582031 -5.460938 5.78125 -5.109375 L 5.78125 -6.25 L 6.828125 -6.25 L 6.828125 0.140625 C 6.828125 0.710938 6.707031 1.21875 6.46875 1.65625 C 6.226562 2.101562 5.878906 2.453125 5.421875 2.703125 C 4.972656 2.953125 4.445312 3.078125 3.84375 3.078125 C 3.019531 3.078125 2.332031 2.882812 1.78125 2.5 C 1.238281 2.113281 0.921875 1.582031 0.828125 0.90625 L 1.84375 0.90625 C 1.957031 1.289062 2.191406 1.597656 2.546875 1.828125 C 2.910156 2.054688 3.34375 2.171875 3.84375 2.171875 C 4.414062 2.171875 4.878906 1.992188 5.234375 1.640625 C 5.597656 1.285156 5.78125 0.785156 5.78125 0.140625 L 5.78125 -1.171875 C 5.570312 -0.804688 5.265625 -0.5 4.859375 -0.25 C 4.460938 -0.0078125 3.992188 0.109375 3.453125 0.109375 C 2.898438 0.109375 2.394531 -0.0234375 1.9375 -0.296875 C 1.488281 -0.578125 1.132812 -0.960938 0.875 -1.453125 C 0.613281 -1.953125 0.484375 -2.515625 0.484375 -3.140625 C 0.484375 -3.785156 0.613281 -4.347656 0.875 -4.828125 C 1.132812 -5.316406 1.488281 -5.691406 1.9375 -5.953125 C 2.394531 -6.222656 2.898438 -6.359375 3.453125 -6.359375 Z M 5.78125 -3.140625 C 5.78125 -3.609375 5.6875 -4.015625 5.5 -4.359375 C 5.3125 -4.710938 5.054688 -4.984375 4.734375 -5.171875 C 4.410156 -5.359375 4.050781 -5.453125 3.65625 -5.453125 C 3.269531 -5.453125 2.914062 -5.359375 2.59375 -5.171875 C 2.28125 -4.992188 2.023438 -4.726562 1.828125 -4.375 C 1.640625 -4.03125 1.546875 -3.617188 1.546875 -3.140625 C 1.546875 -2.660156 1.640625 -2.242188 1.828125 -1.890625 C 2.023438 -1.546875 2.28125 -1.28125 2.59375 -1.09375 C 2.914062 -0.90625 3.269531 -0.8125 3.65625 -0.8125 C 4.050781 -0.8125 4.410156 -0.90625 4.734375 -1.09375 C 5.054688 -1.28125 5.3125 -1.546875 5.5 -1.890625 C 5.6875 -2.242188 5.78125 -2.660156 5.78125 -3.140625 Z M 5.78125 -3.140625 "/></g></g></g><g fill="#ffffff" fill-opacity="1"><g transform="translate(146.861664, 77.672829)"><g/></g></g><g fill="#ffffff" fill-opacity="1"><g transform="translate(149.906873, 77.672829)"><g><path d="M 3.359375 -7.953125 C 4.222656 -7.953125 4.972656 -7.789062 5.609375 -7.46875 C 6.242188 -7.144531 6.726562 -6.679688 7.0625 -6.078125 C 7.40625 -5.472656 7.578125 -4.765625 7.578125 -3.953125 C 7.578125 -3.140625 7.40625 -2.4375 7.0625 -1.84375 C 6.726562 -1.25 6.242188 -0.789062 5.609375 -0.46875 C 4.972656 -0.15625 4.222656 0 3.359375 0 L 0.875 0 L 0.875 -7.953125 Z M 3.359375 -0.859375 C 4.378906 -0.859375 5.160156 -1.128906 5.703125 -1.671875 C 6.242188 -2.210938 6.515625 -2.972656 6.515625 -3.953125 C 6.515625 -4.941406 6.238281 -5.710938 5.6875 -6.265625 C 5.144531 -6.828125 4.367188 -7.109375 3.359375 -7.109375 L 1.921875 -7.109375 L 1.921875 -0.859375 Z M 3.359375 -0.859375 "/></g></g></g><g fill="#ffffff" fill-opacity="1"><g transform="translate(157.970392, 77.672829)"><g><path d="M 6.578125 -3.359375 C 6.578125 -3.160156 6.566406 -2.953125 6.546875 -2.734375 L 1.546875 -2.734375 C 1.585938 -2.117188 1.800781 -1.640625 2.1875 -1.296875 C 2.570312 -0.953125 3.035156 -0.78125 3.578125 -0.78125 C 4.023438 -0.78125 4.398438 -0.882812 4.703125 -1.09375 C 5.003906 -1.300781 5.21875 -1.578125 5.34375 -1.921875 L 6.453125 -1.921875 C 6.285156 -1.328125 5.953125 -0.835938 5.453125 -0.453125 C 4.953125 -0.078125 4.328125 0.109375 3.578125 0.109375 C 2.984375 0.109375 2.453125 -0.0234375 1.984375 -0.296875 C 1.515625 -0.566406 1.144531 -0.945312 0.875 -1.4375 C 0.613281 -1.925781 0.484375 -2.492188 0.484375 -3.140625 C 0.484375 -3.785156 0.613281 -4.347656 0.875 -4.828125 C 1.132812 -5.316406 1.5 -5.691406 1.96875 -5.953125 C 2.4375 -6.222656 2.972656 -6.359375 3.578125 -6.359375 C 4.171875 -6.359375 4.695312 -6.226562 5.15625 -5.96875 C 5.613281 -5.707031 5.960938 -5.347656 6.203125 -4.890625 C 6.453125 -4.441406 6.578125 -3.929688 6.578125 -3.359375 Z M 5.515625 -3.578125 C 5.515625 -3.972656 5.425781 -4.3125 5.25 -4.59375 C 5.070312 -4.882812 4.832031 -5.101562 4.53125 -5.25 C 4.226562 -5.394531 3.894531 -5.46875 3.53125 -5.46875 C 3.007812 -5.46875 2.5625 -5.300781 2.1875 -4.96875 C 1.820312 -4.632812 1.613281 -4.171875 1.5625 -3.578125 Z M 5.515625 -3.578125 "/></g></g></g><g fill="#ffffff" fill-opacity="1"><g transform="translate(165.041653, 77.672829)"><g><path d="M 1.921875 -5.09375 C 2.117188 -5.457031 2.421875 -5.757812 2.828125 -6 C 3.234375 -6.238281 3.707031 -6.359375 4.25 -6.359375 C 4.8125 -6.359375 5.316406 -6.222656 5.765625 -5.953125 C 6.210938 -5.691406 6.566406 -5.316406 6.828125 -4.828125 C 7.085938 -4.347656 7.21875 -3.785156 7.21875 -3.140625 C 7.21875 -2.515625 7.085938 -1.953125 6.828125 -1.453125 C 6.566406 -0.960938 6.210938 -0.578125 5.765625 -0.296875 C 5.316406 -0.0234375 4.8125 0.109375 4.25 0.109375 C 3.71875 0.109375 3.25 -0.0078125 2.84375 -0.25 C 2.4375 -0.488281 2.128906 -0.789062 1.921875 -1.15625 L 1.921875 2.96875 L 0.875 2.96875 L 0.875 -6.25 L 1.921875 -6.25 Z M 6.15625 -3.140625 C 6.15625 -3.617188 6.0625 -4.03125 5.875 -4.375 C 5.6875 -4.726562 5.429688 -4.992188 5.109375 -5.171875 C 4.785156 -5.359375 4.425781 -5.453125 4.03125 -5.453125 C 3.65625 -5.453125 3.304688 -5.359375 2.984375 -5.171875 C 2.660156 -4.984375 2.398438 -4.710938 2.203125 -4.359375 C 2.015625 -4.003906 1.921875 -3.597656 1.921875 -3.140625 C 1.921875 -2.660156 2.015625 -2.242188 2.203125 -1.890625 C 2.398438 -1.546875 2.660156 -1.28125 2.984375 -1.09375 C 3.304688 -0.90625 3.65625 -0.8125 4.03125 -0.8125 C 4.425781 -0.8125 4.785156 -0.90625 5.109375 -1.09375 C 5.429688 -1.28125 5.6875 -1.546875 5.875 -1.890625 C 6.0625 -2.242188 6.15625 -2.660156 6.15625 -3.140625 Z M 6.15625 -3.140625 "/></g></g></g><g fill="#ffffff" fill-opacity="1"><g transform="translate(172.751617, 77.672829)"><g><path d="M 0.484375 -3.140625 C 0.484375 -3.785156 0.613281 -4.347656 0.875 -4.828125 C 1.132812 -5.316406 1.488281 -5.691406 1.9375 -5.953125 C 2.394531 -6.222656 2.898438 -6.359375 3.453125 -6.359375 C 4.003906 -6.359375 4.476562 -6.238281 4.875 -6 C 5.28125 -5.757812 5.582031 -5.460938 5.78125 -5.109375 L 5.78125 -6.25 L 6.828125 -6.25 L 6.828125 0 L 5.78125 0 L 5.78125 -1.15625 C 5.570312 -0.789062 5.265625 -0.488281 4.859375 -0.25 C 4.453125 -0.0078125 3.976562 0.109375 3.4375 0.109375 C 2.882812 0.109375 2.382812 -0.0234375 1.9375 -0.296875 C 1.488281 -0.578125 1.132812 -0.960938 0.875 -1.453125 C 0.613281 -1.953125 0.484375 -2.515625 0.484375 -3.140625 Z M 5.78125 -3.140625 C 5.78125 -3.609375 5.6875 -4.015625 5.5 -4.359375 C 5.3125 -4.710938 5.054688 -4.984375 4.734375 -5.171875 C 4.410156 -5.359375 4.050781 -5.453125 3.65625 -5.453125 C 3.269531 -5.453125 2.914062 -5.359375 2.59375 -5.171875 C 2.28125 -4.992188 2.023438 -4.726562 1.828125 -4.375 C 1.640625 -4.03125 1.546875 -3.617188 1.546875 -3.140625 C 1.546875 -2.660156 1.640625 -2.242188 1.828125 -1.890625 C 2.023438 -1.546875 2.28125 -1.28125 2.59375 -1.09375 C 2.914062 -0.90625 3.269531 -0.8125 3.65625 -0.8125 C 4.050781 -0.8125 4.410156 -0.90625 4.734375 -1.09375 C 5.054688 -1.28125 5.3125 -1.546875 5.5 -1.890625 C 5.6875 -2.242188 5.78125 -2.660156 5.78125 -3.140625 Z M 5.78125 -3.140625 "/></g></g></g><g fill="#ffffff" fill-opacity="1"><g transform="translate(180.46158, 77.672829)"><g><path d="M 1.921875 -5.234375 C 2.097656 -5.585938 2.351562 -5.863281 2.6875 -6.0625 C 3.03125 -6.257812 3.445312 -6.359375 3.9375 -6.359375 L 3.9375 -5.296875 L 3.65625 -5.296875 C 2.5 -5.296875 1.921875 -4.664062 1.921875 -3.40625 L 1.921875 0 L 0.875 0 L 0.875 -6.25 L 1.921875 -6.25 Z M 1.921875 -5.234375 "/></g></g></g><g fill="#ffffff" fill-opacity="1"><g transform="translate(184.715742, 77.672829)"><g><path d="M 2.140625 -5.390625 L 2.140625 -1.703125 C 2.140625 -1.398438 2.203125 -1.1875 2.328125 -1.0625 C 2.460938 -0.9375 2.691406 -0.875 3.015625 -0.875 L 3.78125 -0.875 L 3.78125 0 L 2.84375 0 C 2.257812 0 1.820312 -0.128906 1.53125 -0.390625 C 1.25 -0.660156 1.109375 -1.097656 1.109375 -1.703125 L 1.109375 -5.390625 L 0.296875 -5.390625 L 0.296875 -6.25 L 1.109375 -6.25 L 1.109375 -7.828125 L 2.140625 -7.828125 L 2.140625 -6.25 L 3.78125 -6.25 L 3.78125 -5.390625 Z M 2.140625 -5.390625 "/></g></g></g><g fill="#ffffff" fill-opacity="1"><g transform="translate(188.867255, 77.672829)"><g><path d="M 8.390625 -6.359375 C 8.878906 -6.359375 9.3125 -6.257812 9.6875 -6.0625 C 10.070312 -5.863281 10.375 -5.5625 10.59375 -5.15625 C 10.8125 -4.75 10.921875 -4.257812 10.921875 -3.6875 L 10.921875 0 L 9.90625 0 L 9.90625 -3.53125 C 9.90625 -4.15625 9.75 -4.632812 9.4375 -4.96875 C 9.132812 -5.300781 8.71875 -5.46875 8.1875 -5.46875 C 7.644531 -5.46875 7.210938 -5.289062 6.890625 -4.9375 C 6.578125 -4.59375 6.421875 -4.09375 6.421875 -3.4375 L 6.421875 0 L 5.390625 0 L 5.390625 -3.53125 C 5.390625 -4.15625 5.234375 -4.632812 4.921875 -4.96875 C 4.617188 -5.300781 4.207031 -5.46875 3.6875 -5.46875 C 3.144531 -5.46875 2.710938 -5.289062 2.390625 -4.9375 C 2.078125 -4.59375 1.921875 -4.09375 1.921875 -3.4375 L 1.921875 0 L 0.875 0 L 0.875 -6.25 L 1.921875 -6.25 L 1.921875 -5.34375 C 2.117188 -5.675781 2.390625 -5.925781 2.734375 -6.09375 C 3.085938 -6.269531 3.472656 -6.359375 3.890625 -6.359375 C 4.410156 -6.359375 4.875 -6.238281 5.28125 -6 C 5.6875 -5.769531 5.988281 -5.425781 6.1875 -4.96875 C 6.351562 -5.414062 6.640625 -5.757812 7.046875 -6 C 7.453125 -6.238281 7.898438 -6.359375 8.390625 -6.359375 Z M 8.390625 -6.359375 "/></g></g></g><g fill="#ffffff" fill-opacity="1"><g transform="translate(200.614685, 77.672829)"><g><path d="M 6.578125 -3.359375 C 6.578125 -3.160156 6.566406 -2.953125 6.546875 -2.734375 L 1.546875 -2.734375 C 1.585938 -2.117188 1.800781 -1.640625 2.1875 -1.296875 C 2.570312 -0.953125 3.035156 -0.78125 3.578125 -0.78125 C 4.023438 -0.78125 4.398438 -0.882812 4.703125 -1.09375 C 5.003906 -1.300781 5.21875 -1.578125 5.34375 -1.921875 L 6.453125 -1.921875 C 6.285156 -1.328125 5.953125 -0.835938 5.453125 -0.453125 C 4.953125 -0.078125 4.328125 0.109375 3.578125 0.109375 C 2.984375 0.109375 2.453125 -0.0234375 1.984375 -0.296875 C 1.515625 -0.566406 1.144531 -0.945312 0.875 -1.4375 C 0.613281 -1.925781 0.484375 -2.492188 0.484375 -3.140625 C 0.484375 -3.785156 0.613281 -4.347656 0.875 -4.828125 C 1.132812 -5.316406 1.5 -5.691406 1.96875 -5.953125 C 2.4375 -6.222656 2.972656 -6.359375 3.578125 -6.359375 C 4.171875 -6.359375 4.695312 -6.226562 5.15625 -5.96875 C 5.613281 -5.707031 5.960938 -5.347656 6.203125 -4.890625 C 6.453125 -4.441406 6.578125 -3.929688 6.578125 -3.359375 Z M 5.515625 -3.578125 C 5.515625 -3.972656 5.425781 -4.3125 5.25 -4.59375 C 5.070312 -4.882812 4.832031 -5.101562 4.53125 -5.25 C 4.226562 -5.394531 3.894531 -5.46875 3.53125 -5.46875 C 3.007812 -5.46875 2.5625 -5.300781 2.1875 -4.96875 C 1.820312 -4.632812 1.613281 -4.171875 1.5625 -3.578125 Z M 5.515625 -3.578125 "/></g></g></g><g fill="#ffffff" fill-opacity="1"><g transform="translate(207.685947, 77.672829)"><g><path d="M 3.921875 -6.359375 C 4.679688 -6.359375 5.296875 -6.128906 5.765625 -5.671875 C 6.242188 -5.210938 6.484375 -4.550781 6.484375 -3.6875 L 6.484375 0 L 5.453125 0 L 5.453125 -3.53125 C 5.453125 -4.15625 5.296875 -4.632812 4.984375 -4.96875 C 4.671875 -5.300781 4.242188 -5.46875 3.703125 -5.46875 C 3.160156 -5.46875 2.726562 -5.296875 2.40625 -4.953125 C 2.082031 -4.609375 1.921875 -4.109375 1.921875 -3.453125 L 1.921875 0 L 0.875 0 L 0.875 -6.25 L 1.921875 -6.25 L 1.921875 -5.359375 C 2.117188 -5.679688 2.394531 -5.925781 2.75 -6.09375 C 3.101562 -6.269531 3.492188 -6.359375 3.921875 -6.359375 Z M 3.921875 -6.359375 "/></g></g></g><g fill="#ffffff" fill-opacity="1"><g transform="translate(214.985317, 77.672829)"><g><path d="M 2.140625 -5.390625 L 2.140625 -1.703125 C 2.140625 -1.398438 2.203125 -1.1875 2.328125 -1.0625 C 2.460938 -0.9375 2.691406 -0.875 3.015625 -0.875 L 3.78125 -0.875 L 3.78125 0 L 2.84375 0 C 2.257812 0 1.820312 -0.128906 1.53125 -0.390625 C 1.25 -0.660156 1.109375 -1.097656 1.109375 -1.703125 L 1.109375 -5.390625 L 0.296875 -5.390625 L 0.296875 -6.25 L 1.109375 -6.25 L 1.109375 -7.828125 L 2.140625 -7.828125 L 2.140625 -6.25 L 3.78125 -6.25 L 3.78125 -5.390625 Z M 2.140625 -5.390625 "/></g></g></g></svg>